<?xml version="1.0" encoding="utf-8"?>
<!-- Generator: Adobe Illustrator 26.0.1, SVG Export Plug-In . SVG Version: 6.00 Build 0)  -->
<svg version="1.1" id="Layer_1" xmlns="http://www.w3.org/2000/svg" xmlns:xlink="http://www.w3.org/1999/xlink" x="0px" y="0px"
	 viewBox="0 0 702.59 702.59" style="enable-background:new 0 0 702.59 702.59;" xml:space="preserve">
<style type="text/css">
	.st0{fill:#C00706;}
	.st1{fill:#F7AC00;}
	.st2{fill:#378903;}
	.st3{fill:#FF5B02;}
	.st4{fill:#327CFE;}
</style>
<g>
	<g>
		<g>
			<g>
				<g>
					<g>
						<g>
							<g>
								<g>
									<path class="st0" d="M602.86,532.02c-4.8,6.89-9.76,13.39-14.87,19.59c-0.16,0.23-0.39,0.47-0.54,0.78
										c-39.11,48.32-92.62,84.49-154.11,101.84c-0.62,0.16-1.16,0.31-1.78,0.47c-8.6,2.4-17.27,4.41-26.17,5.96
										c-0.23-11.93-1.16-23.62-2.87-35.16v-0.08l0.08-0.08c21.92-7.82,53.36-27.49,53.36-27.49c-35,1.08-55.06-13.01-66.6-28.27
										c0,0,0,0,0-0.08c-12.31-16.42-14.71-34.15-14.95-36.09c0-0.08,0-0.16,0-0.16c41.04-5.96,65.21,11.08,74.81,19.98
										c-9.45,10.77-31.83,13.86-35.24,14.33c-0.23,0-0.39,0-0.39,0c0.39,0.16,0.93,0.31,1.39,0.47
										c13.94,4.96,27.96,2.17,38.57-5.5c6.74-4.8,12.08-11.54,15.1-19.44c0.16-0.39,0.31-0.7,0.39-1.01
										c10.45-23.47,1.08-53.59,1.08-53.59c-14.02,3.41-24.39,14.17-25.48,15.33c-0.08,0.08-0.08,0.08-0.08,0.08
										c-1.7-7.74-2.4-14.87-2.4-21.22c0-7.12,0.85-13.48,2.32-18.97c0,0,4.96-30.82,36.71-46.23
										c24.39-62.42,92.31-73.8,100.91-75.04c-0.93,13.79-4.57,31.14-14.87,47.4c0.85-0.54,15.1-9.91,25.79-27.57
										c4.72,12.94,9.06,32.06,7.9,57.31c0,0-0.08,0.08-0.08,0.16c0.08,47.08-27.34,89.67-27.34,89.67
										c80.77-71.24,50.88-165.34,50.88-165.34l13.47-20.52c5.58,2.4,11.38,8.52,16.03,14.33l0.08,0.08
										c0,0.39,0.08,0.85,0.08,1.24v0.08c0.08,0.85,0.08,1.86,0.16,2.71C657.38,385.49,653.04,459.99,602.86,532.02z"/>
									<path class="st1" d="M80.25,501.01c35.47,68.58,96.29,121.94,170.07,147.63C237.49,565.79,166.4,502.21,80.25,501.01z"/>
									<path class="st2" d="M85.37,443.81c-9.24,0-18.31,0.54-27.26,1.57c3.14,10.93,6.85,21.57,11.14,31.92
										c2.85-0.16,5.69-0.21,8.54-0.21c103.05,0,187.8,78.56,197.53,179.1c15.75,4.04,32,6.8,48.62,8.21
										C314.4,540.97,211.23,443.81,85.37,443.81z"/>
									<path class="st1" d="M101.04,383.52c-18.27,0-36.12,1.73-53.44,5.07c1.03,11.96,2.76,23.71,5.2,35.26
										c10.68-1.32,21.53-2.02,32.58-2.02c138.39,0,251.63,107.59,260.71,243.72c1.49,0.04,3.01,0.04,4.54,0.04
										c11.59,0,23.05-0.66,34.31-1.94C382.9,508.56,256.59,383.52,101.04,383.52z"/>
									<path class="st3" d="M380.84,178.16c0,4.95,4,8.95,8.95,8.95c4.95,0,8.95-4,8.95-8.95c0-4.95-4-8.95-8.95-8.95
										C384.84,169.21,380.84,173.21,380.84,178.16z"/>
									<path class="st2" d="M79.76,247.44c0.62,37.32,16.83,112,134.73,120.87c0,0-27.38-62.81-83.88-81.77
										c0,0,33.32,0,65.61,34.39c32.29,34.39,33.69,54.76,37.2,64.41c1.69,4.74,5.82,9.32,9.48,12.7
										c3.84,3.55,7.22,5.81,7.22,5.81v-1.9v-27.34c0,0,16.25-65.69,84.04-95.47c-3.34,1.98-57.24,34.14-66.68,92.33
										c0,0,132.99-7.75,132.29-140.04c0,0-138.6-18.43-149.65,112.66l-4.04,7.88v-42.27l0.41-0.82
										c-0.08-5.61,0.08-11.71,0.58-18.14c0-0.29,0.04-0.58,0.04-0.87c1.07-23.71,6.43-52.12,6.43-52.12l14.27-14.72
										c0,0,118.85-28.45,122.6-163.3c0.17-7.26,0.04-14.85-0.45-22.72c0,0-36.62,2.89-73.44,22.02
										c-32.25,16.74-64.62,45.98-72.74,96.58c0,0-6.84,48.45-6.84,90.56c0,0-30.85-73.69-70.89-97.9c0,0,39.59,13.15,60.91,57.65
										c0,0,11.63-68.25-55.75-90.23c-12.5-4.08-27.67-6.56-46.19-6.72c0,0-2.85,19.96,3.92,44.04
										c3.92,13.98,11.01,29.32,23.79,42.97c34.72,37.2,57.03,37.4,66.31,59.84c9.32,22.47,7.55,57.2,7.55,57.2
										s-28.87-85.77-145.45-86.6l-0.04,0.33l-0.04,0.37c-0.37,2.23-1.48,9.69-1.28,20.12V247.44z M342.9,91.43
										c-62.81,46.31-92.29,131.59-92.29,131.59C259.93,124.18,340.38,92.38,342.9,91.43z"/>
									<path class="st2" d="M360.3,507.9c24.08-17.65,54.31-26.39,54.31-26.39c1.86-14.23,9.48-33.44,9.48-33.44
										c-48.91,0.45-79.88,18.76-88.87,24.91C344.43,483.98,352.8,495.65,360.3,507.9z"/>
									<path class="st1" d="M281.33,422.12c13.94,10.27,26.97,21.69,38.97,34.15c38.15-33.98,109.86-30.31,109.86-30.31
										C346.57,385.87,293.66,414.12,281.33,422.12z"/>
									<path class="st3" d="M422.08,145.62c7.34,0,13.32-5.98,13.32-13.32c0-7.38-5.98-13.36-13.32-13.36
										c-7.38,0-13.36,5.98-13.36,13.36C408.71,139.64,414.69,145.62,422.08,145.62z"/>
									<path class="st3" d="M418.9,192.01c0,5.77,4.7,10.47,10.43,10.47c5.77,0,10.47-4.7,10.47-10.47
										c0-5.73-4.7-10.43-10.47-10.43C423.6,181.58,418.9,186.28,418.9,192.01z"/>
									<path class="st3" d="M453.67,101.21c7.83,0,14.19-6.35,14.19-14.19c0-2.64-0.74-5.15-2.02-7.3
										c-2.47-4.17-6.97-6.93-12.16-6.93c-1.57,0-3.05,0.25-4.45,0.7c-5.69,1.86-9.77,7.22-9.77,13.53
										C439.44,94.86,445.79,101.21,453.67,101.21z"/>
									<path class="st3" d="M449.79,218.53c0,5.98,4.82,10.8,10.8,10.8c5.94,0,10.8-4.82,10.8-10.8c0-5.98-4.87-10.8-10.8-10.8
										C454.61,207.73,449.79,212.55,449.79,218.53z"/>
									<g>
										<path class="st4" d="M442.53,391.48c20.78,0,37.61-16.87,37.61-37.65s-37.61-67.38-37.61-67.38s-37.65,46.6-37.65,67.38
											S421.71,391.48,442.53,391.48z"/>
									</g>
									<path class="st3" d="M457.87,153.5c0,8.04,6.51,14.6,14.56,14.6s14.56-6.56,14.56-14.6c0-8.04-6.51-14.56-14.56-14.56
										S457.87,145.46,457.87,153.5z"/>
									<path class="st3" d="M497.34,268.39c7.22,0,13.07-5.86,13.07-13.11c0-7.22-5.86-13.07-13.07-13.07s-13.07,5.86-13.07,13.07
										C484.26,262.53,490.12,268.39,497.34,268.39z"/>
									<path class="st3" d="M513.13,289.09c-7.79,0-14.1,6.31-14.1,14.1c0,7.79,6.31,14.14,14.1,14.14
										c7.83,0,14.14-6.35,14.14-14.14C527.27,295.4,520.97,289.09,513.13,289.09z"/>
									<path class="st3" d="M512.63,130.16c8.66,0,15.75-6.85,16.08-15.42c0.04-0.25,0.04-0.45,0.04-0.7
										c0-8.91-7.22-16.17-16.12-16.17c-2.56,0-4.99,0.58-7.09,1.65c-5.4,2.64-9.07,8.17-9.07,14.52
										C496.47,122.94,503.69,130.16,512.63,130.16z"/>
									<path class="st3" d="M514.74,175.81c-8.25,0-14.93,6.68-14.93,14.93c0,8.21,6.68,14.89,14.93,14.89
										c8.21,0,14.89-6.68,14.89-14.89C529.63,182.49,522.94,175.81,514.74,175.81z"/>
									<path class="st3" d="M547.89,255.27c8.54,0,15.42-6.89,15.42-15.42s-6.89-15.42-15.42-15.42
										c-8.54,0-15.46,6.89-15.46,15.42S539.36,255.27,547.89,255.27z"/>
									<path class="st3" d="M563.32,175.81c8.33,0,15.38-5.65,17.44-13.36c0.45-1.48,0.66-3.05,0.66-4.7
										c0-10.02-8.12-18.1-18.1-18.1c-1.36,0-2.68,0.16-3.96,0.45c-8.08,1.81-14.1,8.99-14.1,17.65
										C545.25,167.72,553.34,175.81,563.32,175.81z"/>
									<path class="st3" d="M567.19,275.64c-9.65,0-17.44,7.84-17.44,17.49c0,9.61,7.79,17.44,17.44,17.44
										c9.65,0,17.44-7.84,17.44-17.44C584.64,283.48,576.84,275.64,567.19,275.64z"/>
									<path class="st3" d="M602.99,236.88c8.99,0,16.45-6.43,18.02-14.97v-0.04c0.21-1.07,0.33-2.19,0.33-3.34
										c0-7.88-4.99-14.6-11.96-17.15v-0.04c-1.98-0.74-4.12-1.15-6.39-1.15c-10.14,0-18.35,8.21-18.35,18.35
										C584.64,228.67,592.84,236.88,602.99,236.88z"/>
									<path class="st3" d="M609.91,279.07c0,10.43,8.46,18.89,18.89,18.89c7.42,0,13.9-4.33,16.95-10.64v-0.04
										c1.24-2.47,1.9-5.28,1.9-8.21c0-6.85-3.67-12.82-9.11-16.12c-2.85-1.73-6.19-2.72-9.73-2.72
										C618.37,260.22,609.91,268.63,609.91,279.07z"/>
								</g>
							</g>
						</g>
					</g>
				</g>
			</g>
		</g>
	</g>
</g>
</svg>

