<?xml version="1.0" encoding="UTF-8"?>
<svg version="1.1" xmlns="http://www.w3.org/2000/svg" width="3000" height="1026">
<path d="M0 0 C1.36752354 -0.00701744 2.73504673 -0.01410429 4.10256958 -0.02125549 C8.46291555 -0.04071532 12.82320876 -0.04569065 17.18359375 -0.046875 C18.29633352 -0.04753778 18.29633352 -0.04753778 19.43155289 -0.04821396 C41.94891263 -0.05525521 64.26857757 0.18109287 86.62109375 3.203125 C87.2773877 3.29033813 87.93368164 3.37755127 88.60986328 3.46740723 C162.79754042 13.37957167 162.79754042 13.37957167 179.62109375 30.203125 C179.81930428 32.83106299 179.9541945 35.43790919 180.05078125 38.0703125 C180.08551041 38.90658173 180.12023956 39.74285095 180.15602112 40.60446167 C180.23237482 42.44794043 180.30671835 44.29150323 180.37936401 46.13513184 C180.58200982 51.2442431 180.80368372 56.35253823 181.0234375 61.4609375 C181.07031204 62.55752686 181.11718658 63.65411621 181.16548157 64.78393555 C181.74188487 78.17632378 182.38724045 91.565188 183.05859375 104.953125 C183.12106293 106.20127991 183.1835321 107.44943481 183.24789429 108.7354126 C184.16253246 126.8466268 185.27633879 144.93279279 186.70678711 163.01074219 C186.7683197 163.79481445 186.82985229 164.57888672 186.89324951 165.38671875 C187.05660833 167.45176338 187.22474106 169.51642888 187.39331055 171.58105469 C187.61558803 175.11557646 187.62109375 178.66162088 187.62109375 182.203125 C166.83109375 183.193125 166.83109375 183.193125 145.62109375 184.203125 C143.39435619 175.29617475 143.39435619 175.29617475 142.578125 170.91015625 C136.6425241 140.08374771 126.13302911 111.71506036 103.62109375 89.203125 C102.80769531 88.38972656 101.99429687 87.57632813 101.15625 86.73828125 C73.48448379 60.50167958 34.66847457 55.08383913 -1.8125 56.02392578 C-26.67718279 57.27328758 -48.15037492 67.85632188 -65.06640625 86.015625 C-77.86775976 101.31700755 -83.94054071 122.32481968 -82.37890625 142.203125 C-80.7125828 160.42853778 -75.7114301 177.30800066 -63.37890625 191.203125 C-62.64542969 192.03070313 -61.91195312 192.85828125 -61.15625 193.7109375 C-46.52346352 209.22576212 -27.90238965 220.00289142 -9.37890625 230.203125 C-7.91420898 231.01281738 -7.91420898 231.01281738 -6.41992188 231.83886719 C10.42570506 241.06973205 27.86850119 248.78559979 45.47851562 256.40722656 C78.16498953 270.56070207 78.16498953 270.56070207 92.62109375 278.203125 C93.28737793 278.54956055 93.95366211 278.89599609 94.64013672 279.25292969 C140.51797072 303.23089171 177.37360226 334.91663425 193.62109375 385.203125 C195.64247203 392.12628023 197.22135888 399.13070429 198.62109375 406.203125 C198.86859375 407.44449219 199.11609375 408.68585938 199.37109375 409.96484375 C206.06884806 452.24441783 197.70904363 499.15010122 172.62109375 534.203125 C169.76051944 538.00436034 166.76458508 541.63349135 163.62109375 545.203125 C162.86828125 546.06550781 162.11546875 546.92789063 161.33984375 547.81640625 C159.13095919 550.30896605 156.88852379 552.76379593 154.62109375 555.203125 C154.01007813 555.86828125 153.3990625 556.5334375 152.76953125 557.21875 C111.08956985 600.84968831 44.18339754 620.28038602 -14.47122192 622.31013489 C-17.70896947 622.36633401 -20.94538529 622.39345893 -24.18359375 622.40625 C-25.37354446 622.41321899 -26.56349518 622.42018799 -27.789505 622.42736816 C-31.61100841 622.44467616 -35.43236528 622.45108827 -39.25390625 622.453125 C-40.55647369 622.45413208 -41.85904114 622.45513916 -43.20108032 622.45617676 C-62.11667792 622.44626499 -80.65057672 622.06537337 -99.37890625 619.203125 C-100.38099121 619.05858887 -101.38307617 618.91405273 -102.41552734 618.76513672 C-134.30147732 614.08866882 -176.5650705 605.58423175 -201.37890625 583.203125 C-203.07514764 578.34025319 -203.83718489 573.51668523 -204.33691406 568.41503906 C-204.41546096 567.66594111 -204.49400785 566.91684317 -204.57493496 566.14504528 C-204.83308062 563.67017424 -205.08246909 561.19450001 -205.33203125 558.71875 C-205.5141639 556.96038872 -205.69694242 555.20209424 -205.88032532 553.44386292 C-206.26842254 549.71360994 -206.65302607 545.98302152 -207.03469849 542.25210571 C-208.02478598 532.57677557 -209.03530924 522.90357315 -210.046875 513.23046875 C-210.14662565 512.27475668 -210.2463763 511.31904461 -210.3491497 510.33437157 C-212.28221497 491.83479098 -214.40159672 473.36304852 -216.70214844 454.90527344 C-216.87595284 453.48540382 -216.87595284 453.48540382 -217.05326843 452.03684998 C-217.26149222 450.33767173 -217.47442527 448.63905802 -217.69392395 446.94129944 C-218.37697054 441.34385395 -218.48467243 435.83896487 -218.37890625 430.203125 C-213.68367643 429.77127412 -208.98804414 429.34420397 -204.29199219 428.92138672 C-202.6974744 428.77716384 -201.1030702 428.63167903 -199.50878906 428.48486328 C-197.20537206 428.27297198 -194.90157261 428.06575736 -192.59765625 427.859375 C-191.89523804 427.79375366 -191.19281982 427.72813232 -190.46911621 427.66052246 C-185.7545539 427.24416207 -181.11205339 427.14744092 -176.37890625 427.203125 C-176.12834473 427.99146729 -175.8777832 428.77980957 -175.61962891 429.59204102 C-161.25783833 474.47833568 -141.13453261 526.45223916 -96.828125 549.6484375 C-81.585055 557.28631604 -66.23430334 561.85073589 -49.37890625 564.203125 C-48.71995361 564.29883789 -48.06100098 564.39455078 -47.38208008 564.49316406 C-15.36900102 568.63730004 18.59042319 564.36533305 45.00390625 544.75390625 C63.60031415 529.9094052 73.35391401 509.96965667 75.99609375 486.640625 C78.37724293 461.24597695 72.38074433 437.81441523 56.59765625 417.61328125 C32.0468229 388.72726358 -9.0793618 371.46992998 -43.04418945 356.47705078 C-52.88210816 352.12919137 -62.55573275 347.44248549 -72.22509766 342.73388672 C-75.27433881 341.25387882 -78.33195693 339.7924312 -81.390625 338.33203125 C-110.67805593 324.19551481 -138.53187586 306.40421268 -162.37890625 284.203125 C-163.50619141 283.17445313 -163.50619141 283.17445313 -164.65625 282.125 C-188.34251667 259.645942 -200.59021175 225.84704665 -205.37890625 194.203125 C-205.48058105 193.55311523 -205.58225586 192.90310547 -205.68701172 192.23339844 C-206.74876776 184.31848977 -206.62272817 176.29963159 -206.62890625 168.328125 C-206.62991837 167.15577805 -206.62991837 167.15577805 -206.63095093 165.95974731 C-206.61472711 154.12803873 -206.14206199 142.75616198 -203.37890625 131.203125 C-203.21261719 130.46964844 -203.04632813 129.73617187 -202.875 128.98046875 C-197.73689791 106.79147971 -187.48255989 86.26925995 -172.37890625 69.203125 C-171.95351562 68.71215332 -171.528125 68.22118164 -171.08984375 67.71533203 C-164.76399386 60.42534493 -158.02672055 54.11757479 -150.37890625 48.203125 C-149.44046875 47.42582031 -148.50203125 46.64851563 -147.53515625 45.84765625 C-106.99357487 12.98598784 -51.23346767 0.17723839 0 0 Z " fill="#F7AC00" transform="translate(218.37890625,34.796875)"/>
<path d="M0 0 C0.83144531 0.42925781 1.66289063 0.85851562 2.51953125 1.30078125 C4.5605716 2.35649177 6.59513348 3.42300591 8.625 4.5 C8.53412109 5.65298584 8.44324219 6.80597168 8.34960938 7.99389648 C8.00752629 12.35651695 7.67420915 16.71977382 7.34326172 21.08325195 C7.20006769 22.95582616 7.05463565 24.82823085 6.90673828 26.70043945 C5.96373674 38.66116314 5.41128731 50.50141743 5.625 62.5 C6.3557373 61.69216064 7.08647461 60.88432129 7.83935547 60.05200195 C10.74612178 56.84723883 13.67907398 53.66870345 16.625 50.5 C17.48867187 49.56800781 18.35234375 48.63601563 19.2421875 47.67578125 C49.76564811 15.89983821 94.43636396 -0.1821935 137.92333984 -1.6081543 C172.96134124 -2.22440055 208.01394563 1.93452136 235.625 25.5 C236.41132812 26.14195312 237.19765625 26.78390625 238.0078125 27.4453125 C258.89907992 45.19306633 270.06801461 70.65727369 275.875 96.9375 C276.02638428 97.61506348 276.17776855 98.29262695 276.33374023 98.99072266 C279.59894968 115.09712041 279.92153982 131.4199615 279.91210938 147.78540039 C279.9181503 149.94929253 279.9250787 152.11318235 279.93281555 154.27706909 C279.94757677 158.89522541 279.9564211 163.51333946 279.96052551 168.13151741 C279.96729819 175.44070278 279.98911673 182.7497982 280.01306152 190.0589447 C280.06592484 206.87861143 280.09956728 223.69830571 280.13282013 240.51802063 C280.16354818 255.97056664 280.19839138 271.42307338 280.24913073 286.87556833 C280.2724101 294.13597827 280.28620218 301.39632441 280.29262543 308.65676796 C280.29857529 313.17179758 280.31267989 317.6867754 280.32896996 322.20177841 C280.33483017 324.28907408 280.33732146 326.37638244 280.33613014 328.46368599 C280.33496449 331.32099784 280.34603879 334.1780211 280.35998535 337.03529358 C280.35668638 337.85310446 280.3533874 338.67091535 280.34998846 339.51350838 C280.43057261 349.5737486 282.08567028 360.61194734 289.23828125 368.21484375 C291.28043942 369.86343824 293.3536806 371.18292501 295.625 372.5 C296.55570313 373.04011719 297.48640625 373.58023437 298.4453125 374.13671875 C308.68707828 379.62778595 319.61107478 383.1482229 330.62231445 386.76318359 C332.625 387.5 332.625 387.5 333.625 388.5 C333.71355161 391.1662603 333.74024673 393.80647114 333.72265625 396.47265625 C333.72053383 397.66912025 333.72053383 397.66912025 333.71836853 398.88975525 C333.71275316 401.44737435 333.70019812 404.00490718 333.6875 406.5625 C333.68248698 408.29231645 333.67792373 410.02213426 333.67382812 411.75195312 C333.66277875 416.00133553 333.64550386 420.25065312 333.625 424.5 C333.04161865 424.48747192 332.4582373 424.47494385 331.85717773 424.46203613 C293.44752774 423.65072012 255.04290291 423.375 216.625 423.375 C215.50798706 423.375 214.39097412 423.375 213.2401123 423.375 C175.36013199 423.38046944 137.49672749 423.71567428 99.625 424.5 C99.625 412.62 99.625 400.74 99.625 388.5 C105.45302825 386.1687887 111.08038233 383.96987148 117.00756836 382.01538086 C134.07603885 376.56078381 134.07603885 376.56078381 146.625 364.5 C150.30846333 356.0734469 151.77592283 348.38563665 151.76544189 339.19966125 C151.76841302 338.37897933 151.77138414 337.5582974 151.7744453 336.71274632 C151.78309726 333.97035235 151.78463762 331.22800222 151.78613281 328.4855957 C151.79076376 326.51556302 151.7957888 324.54553124 151.80117798 322.57550049 C151.8142843 317.22557745 151.82074444 311.87566695 151.82518864 306.52573037 C151.82812449 303.17635891 151.83223044 299.82699083 151.83669281 296.47762108 C151.85036811 285.97881948 151.86003248 275.48002566 151.8638947 264.98121578 C151.86836434 252.89987831 151.88586115 240.81865461 151.9148953 228.73735172 C151.93660053 219.3773486 151.94660381 210.01737727 151.94793582 200.65734929 C151.94897828 195.07827226 151.95476511 189.49930216 151.97275543 183.92025185 C151.98938774 178.65970466 151.99131905 173.399343 151.98261642 168.13877869 C151.98185387 166.22296841 151.98608359 164.30714752 151.99607468 162.39136314 C152.11401737 138.33668919 149.65503116 111.97688482 132.3125 93.625 C118.22783562 80.46821047 99.61343281 76.76801189 80.8046875 77.25 C60.27275807 78.21620844 38.61597237 85.54266691 23.13899612 99.38086224 C20.625 101.5 20.625 101.5 18.0207634 103.08542347 C14.27895944 105.63410946 11.27463261 108.0861728 10.05549717 112.61609054 C9.10475304 119.26700788 9.35168855 125.98879618 9.45800781 132.68823242 C9.45755409 134.96238685 9.45272032 137.23654399 9.44384766 139.51068115 C9.4324495 145.67486764 9.48297642 151.83715679 9.54519749 158.00098205 C9.60040242 164.46325822 9.60028428 170.92554054 9.60662842 177.38801575 C9.6250285 188.24512971 9.67971804 199.1014456 9.76074219 209.95825195 C9.84383565 221.10214618 9.90058416 232.24571025 9.92480469 243.38989258 C9.92630112 244.07558239 9.92779754 244.76127221 9.92933932 245.4677405 C9.93528953 248.22485189 9.94116408 250.98196343 9.94691189 253.73907525 C9.97109801 265.03693839 10.01473005 276.33473697 10.0620718 287.63252473 C10.0727725 290.19747822 10.08304751 292.76243353 10.09289646 295.32739043 C10.12164953 302.64824131 10.1607347 309.96889476 10.21585083 317.28959656 C10.23118669 319.50096958 10.24335578 321.71236735 10.25200653 323.92377663 C9.47960815 346.83360984 9.47960815 346.83360984 17.625 367.5 C28.13912285 377.66296354 44.53286002 382.00287702 58.15234375 386.3359375 C61.625 387.5 61.625 387.5 62.625 388.5 C62.71355161 391.1662603 62.74024673 393.80647114 62.72265625 396.47265625 C62.72053383 397.66912025 62.72053383 397.66912025 62.71836853 398.88975525 C62.71275316 401.44737435 62.70019812 404.00490718 62.6875 406.5625 C62.68248698 408.29231645 62.67792373 410.02213426 62.67382812 411.75195312 C62.66277875 416.00133553 62.64550386 420.25065312 62.625 424.5 C62.05636734 424.48747192 61.48773468 424.47494385 60.90187073 424.46203613 C22.66483959 423.63390396 -15.56698027 423.375 -53.8125 423.375 C-54.94217949 423.375 -56.07185898 423.375 -57.23577118 423.375 C-95.29065835 423.38043291 -133.32835167 423.70942029 -171.375 424.5 C-171.375 412.62 -171.375 400.74 -171.375 388.5 C-160.25137507 384.05055003 -160.25137507 384.05055003 -156.2265625 382.60546875 C-135.65295993 375.7776983 -135.65295993 375.7776983 -121.390625 360.4921875 C-118.50299414 353.32759395 -118.22736993 346.26480364 -118.23455811 338.63400269 C-118.23158698 337.6450397 -118.22861586 336.65607672 -118.2255547 335.63714516 C-118.21688811 332.32563375 -118.21536117 329.01415857 -118.21386719 325.70263672 C-118.20923755 323.32716291 -118.20421269 320.95168985 -118.19882202 318.57621765 C-118.18570949 312.12349498 -118.17921814 305.67077923 -118.17481136 299.21804571 C-118.17204404 295.18461953 -118.16780577 291.15119572 -118.16330719 287.11777115 C-118.15111763 275.93823586 -118.14081801 264.75870248 -118.1374321 253.57916069 C-118.13721253 252.86426063 -118.13699297 252.14936056 -118.13676675 251.41279686 C-118.13654847 250.69623861 -118.13633019 249.97968036 -118.1361053 249.24140823 C-118.13566184 247.78951955 -118.13521528 246.33763087 -118.13476562 244.88574219 C-118.13443348 243.8054742 -118.13443348 243.8054742 -118.13409463 242.70338263 C-118.13014953 231.04299495 -118.11270292 219.38266987 -118.0894061 207.72230636 C-118.06565029 195.73488443 -118.05322831 183.74749386 -118.05206418 171.76004803 C-118.05114974 165.03598649 -118.04513428 158.3120189 -118.02724457 151.58797836 C-118.01073507 145.25963294 -118.00862247 138.93144197 -118.01738358 132.60308266 C-118.01815242 130.28603132 -118.01383145 127.96897159 -118.00392532 125.6519413 C-117.18119342 104.12501566 -117.18119342 104.12501566 -126.375 85.5 C-138.35351787 75.84365038 -155.02776964 72.71203093 -169.375 68.5 C-169.375 56.95 -169.375 45.4 -169.375 33.5 C-166.1575 32.88125 -162.94 32.2625 -159.625 31.625 C-115.50199998 22.88405124 -71.76416524 12.00473216 -28.64794922 -0.79248047 C-27.80032516 -1.04096237 -26.95270111 -1.28944427 -26.07939148 -1.54545593 C-24.50447889 -2.00726619 -22.93139885 -2.47539574 -21.360672 -2.95124817 C-12.46315653 -5.54670983 -7.924142 -4.20851561 0 0 Z " fill="#F7AC00" transform="translate(1183.375,222.5)"/>
<path d="M0 0 C0.61230469 0.35449219 1.22460938 0.70898438 1.85546875 1.07421875 C2.47292969 1.43902344 3.09039063 1.80382812 3.7265625 2.1796875 C4.36722656 2.55222656 5.00789062 2.92476562 5.66796875 3.30859375 C7.23204727 4.21902752 8.79221784 5.13616941 10.3515625 6.0546875 C10.29097656 7.08078125 10.23039063 8.106875 10.16796875 9.1640625 C8.31195457 42.27520504 8.18816715 75.41152427 8.18430543 108.56412721 C8.18358418 112.05808492 8.18143046 115.55203894 8.17880821 119.04599571 C8.1696347 131.29474505 8.16546435 143.54348367 8.16625977 155.79223633 C8.1668628 167.12262023 8.15624625 178.45295689 8.1405161 189.78332883 C8.12737892 199.6034434 8.12207824 209.4235426 8.12271518 219.24366587 C8.12296776 225.06943648 8.12024931 230.89516463 8.10953712 236.72092628 C8.09974725 242.19033081 8.09985022 247.65965306 8.10705376 253.12906075 C8.10808524 255.11416496 8.10582429 257.09927464 8.0996933 259.08436966 C8.06956306 269.52956018 8.35921455 279.88010729 9.23002625 290.29252625 C9.30598646 291.22090925 9.38194667 292.14929226 9.46020871 293.10580808 C11.18396946 311.84043949 16.87599025 331.1927856 31.3515625 344.0546875 C46.92025435 355.54468052 65.87123333 358.27664036 84.73095703 355.73388672 C108.73595689 351.32305509 128.40424511 337.00200489 145.3515625 320.0546875 C145.54952458 317.15036571 145.62072695 314.34127744 145.60552979 311.43571472 C145.60864977 310.53254605 145.61176975 309.62937738 145.61498427 308.69883996 C145.62300085 305.65357226 145.61662618 302.60850182 145.61035156 299.56323242 C145.61306001 297.38701256 145.61662011 295.21079361 145.62097168 293.03457642 C145.63012128 287.10630239 145.6265393 281.17809768 145.62021351 275.24982238 C145.61515971 269.04588489 145.61984389 262.84195346 145.62298584 256.63801575 C145.62686402 245.53695666 145.62062995 234.43592484 145.61046717 223.33487115 C145.6003767 211.96173354 145.60553476 200.58866034 145.6159575 189.2155239 C145.62505425 178.8739588 145.62630304 168.53241407 145.62108016 158.19084626 C145.61796954 152.01613239 145.61752549 145.84145032 145.62415314 139.66673851 C145.62995956 133.84980117 145.62586963 128.03295053 145.61436462 122.21602249 C145.61173425 120.08806947 145.61245516 117.96010907 145.61688995 115.83215904 C146.43034851 92.77858002 146.43034851 92.77858002 137.140625 72.546875 C134.14509039 69.87019281 131.11003219 67.95599719 127.5390625 66.1796875 C126.87197266 65.84453125 126.20488281 65.509375 125.51757812 65.1640625 C115.6063463 60.4520202 104.89884953 57.93122033 94.3515625 55.0546875 C94.3515625 43.5046875 94.3515625 31.9546875 94.3515625 20.0546875 C98.74339844 19.50941406 103.13523437 18.96414062 107.66015625 18.40234375 C136.82403899 14.7525158 165.94822691 10.98956418 194.9765625 6.3671875 C196.14518829 6.18385864 197.31381409 6.00052979 198.51785278 5.81164551 C209.80313551 4.04062516 221.03718475 2.18701742 232.2109375 -0.1953125 C259.08624702 -5.8054336 259.08624702 -5.8054336 271.43505859 2.19067383 C273.12387405 3.41240909 274.74744068 4.72369994 276.3515625 6.0546875 C276.45013663 12.05622513 276.16980172 17.91780255 275.65409058 23.89636225 C274.32143799 39.40072614 274.05515263 54.82253987 274.07545412 70.37544763 C274.0779746 74.01328429 274.06884383 77.65109772 274.06141663 81.28892517 C274.04881946 88.36993616 274.04685623 95.45090899 274.04921689 102.53192931 C274.05101439 108.28919474 274.04922016 114.04644876 274.04499245 119.80371284 C274.04409966 121.04194105 274.04409966 121.04194105 274.04318884 122.30518397 C274.0419769 123.98297377 274.04076277 125.66076357 274.03954647 127.33855338 C274.02873244 142.98208743 274.03080626 158.62559978 274.03693131 174.26913501 C274.04211583 188.55682879 274.03079376 202.84445472 274.01183309 217.13213509 C273.99244069 231.85937583 273.98419983 246.58658447 273.98795635 261.31383806 C273.98986359 269.56005222 273.98742578 277.80620838 273.97324181 286.05241203 C273.96131041 293.05846042 273.95994417 300.06441493 273.97203197 307.07046466 C273.97790339 310.63869453 273.97906782 314.20675277 273.96702957 317.77497101 C273.95410322 321.65145136 273.96467349 325.52767413 273.9773407 329.40415955 C273.96996641 330.5180727 273.96259213 331.63198586 273.95499438 332.77965397 C274.02304649 342.71625387 275.14234348 354.53486721 282.3515625 362.0546875 C294.29385341 371.57540469 310.98874673 374.78393328 325.3515625 379.0546875 C325.3762144 383.87849552 325.39439943 388.70226717 325.40649414 393.52612305 C325.41153424 395.16838214 325.41836628 396.81063673 325.42700195 398.45288086 C325.43908176 400.80844229 325.44479389 403.16394459 325.44921875 405.51953125 C325.45438004 406.25807846 325.45954132 406.99662567 325.46485901 407.7575531 C325.465055 409.52366838 325.41350969 411.28965896 325.3515625 413.0546875 C323.72099552 414.68525448 321.74564847 414.48354507 319.49536133 414.75976562 C318.44642197 414.8911644 317.3974826 415.02256317 316.3167572 415.15794373 C315.15906326 415.29918167 314.00136932 415.44041962 312.80859375 415.5859375 C310.31095863 415.89986377 307.81340356 416.21442735 305.31591797 416.52954102 C303.97458968 416.6977693 302.63326073 416.86599227 301.29193115 417.03421021 C262.1356222 421.95930689 223.10933163 427.85840294 184.48388672 436.02368164 C182.56020264 436.42768188 182.56020264 436.42768188 180.59765625 436.83984375 C179.50122803 437.07582275 178.4047998 437.31180176 177.27514648 437.55493164 C170.38394483 438.73290991 167.29192296 437.2641095 161.6640625 433.4921875 C160.98794922 433.07388672 160.31183594 432.65558594 159.61523438 432.22460938 C158.96748047 431.79599609 158.31972656 431.36738281 157.65234375 430.92578125 C157.06622314 430.54349365 156.48010254 430.16120605 155.8762207 429.76733398 C150.84407266 424.11472894 151.20018952 413.53571796 150.2890625 406.3046875 C150.2006308 405.6178186 150.1121991 404.93094971 150.02108765 404.2232666 C148.74851044 394.29788786 147.83519904 384.41994479 147.52734375 374.4140625 C147.501319 371.06025175 147.501319 371.06025175 146.3515625 368.0546875 C145.82949219 368.70953125 145.30742188 369.364375 144.76953125 370.0390625 C120.37937298 400.28115017 92.04000632 421.14699666 54.1015625 430.8671875 C52.97004761 431.15952271 52.97004761 431.15952271 51.81567383 431.45776367 C37.82954483 434.83773243 23.97115644 435.42991731 9.6640625 435.3671875 C8.78004761 435.36503235 7.89603271 435.3628772 6.98522949 435.36065674 C-5.74391233 435.31082326 -18.22840043 435.12930967 -30.6484375 432.0546875 C-31.87433594 431.75667236 -31.87433594 431.75667236 -33.125 431.45263672 C-49.64722131 427.28776409 -64.31711653 420.78103771 -77.6484375 410.0546875 C-78.68677734 409.26191406 -78.68677734 409.26191406 -79.74609375 408.453125 C-105.09735856 387.99067269 -114.78230124 351.73601941 -118.27332115 320.86455059 C-119.64218186 306.96173912 -119.79886317 293.08555805 -119.80615234 279.12963867 C-119.81083364 277.08751316 -119.81597931 275.04538867 -119.82154846 273.00326538 C-119.83273207 268.64154855 -119.84121205 264.27983815 -119.84766769 259.9181118 C-119.85844507 253.01181445 -119.87871073 246.10556437 -119.90078735 239.19929504 C-119.96240012 219.57307077 -120.01676977 199.94685152 -120.04980469 180.32055664 C-120.06817453 169.45373769 -120.09712779 158.58700031 -120.1378094 147.72024137 C-120.15881499 141.98340247 -120.17432778 136.24666598 -120.17661667 130.50978661 C-120.1787706 125.11939582 -120.19471587 119.72921932 -120.22100639 114.33889389 C-120.22816854 112.3685493 -120.23031543 110.39817867 -120.22690392 108.42782402 C-119.74722659 89.54659192 -119.74722659 89.54659192 -127.6484375 73.0546875 C-139.02152018 62.39758582 -156.2133378 59.33486241 -170.6484375 55.0546875 C-170.6484375 43.5046875 -170.6484375 31.9546875 -170.6484375 20.0546875 C-166.70390625 19.57 -162.759375 19.0853125 -158.6953125 18.5859375 C-132.6177306 15.35842265 -106.55610588 12.07064126 -80.5859375 8.0546875 C-79.54326721 7.89373596 -78.50059692 7.73278442 -77.42633057 7.56695557 C-65.72882492 5.75038091 -54.06098137 3.79828116 -42.41015625 1.703125 C-41.33867844 1.51155823 -40.26720062 1.31999146 -39.16325378 1.12261963 C-34.06522563 0.20940903 -28.9713599 -0.72021325 -23.88256836 -1.68359375 C-22.07803712 -2.01343075 -20.27343499 -2.34288024 -18.46875 -2.671875 C-17.65883102 -2.8317691 -16.84891205 -2.99166321 -16.01445007 -3.15640259 C-9.79167527 -4.26781548 -5.48436875 -3.20783833 0 0 Z " fill="#F7AC00" transform="translate(641.6484375,221.9453125)"/>
<path d="M0 0 C1.77027869 1.5394868 3.52028456 3.1025739 5.25 4.6875 C6.16394531 5.50863281 7.07789062 6.32976562 8.01953125 7.17578125 C33.03854954 30.79513418 41.38585756 65.68386159 42.34637451 99.03369141 C42.3858855 102.7441503 42.38915385 106.45351654 42.375 110.1640625 C42.37378143 110.88218739 42.37256287 111.60031227 42.37130737 112.34019852 C42.31796683 140.28070982 41.67473586 168.22053188 41.17712402 196.15600586 C40.8296796 215.6659752 40.50544432 235.17606698 40.25 254.6875 C40.23455139 255.83769119 40.21910278 256.98788239 40.20318604 258.17292786 C40.119588 264.56453688 40.05436749 270.95582504 40.01882935 277.34788895 C40.00653295 279.22779027 39.98923812 281.10766739 39.96627808 282.98746872 C39.79857584 297.37609356 39.75326251 313.03741828 49.6875 324.5 C57.23434758 330.94243086 64.61775999 331.48078131 74.28710938 330.92724609 C79.68969762 330.26737773 86.09893973 328.04621213 89.828125 323.95703125 C90.29734375 323.53808594 90.7665625 323.11914062 91.25 322.6875 C96.61781344 323.28517819 99.571161 327.71340506 103.0625 331.4375 C103.76826172 332.15421875 104.47402344 332.8709375 105.20117188 333.609375 C105.86310547 334.310625 106.52503906 335.011875 107.20703125 335.734375 C107.81522705 336.37213867 108.42342285 337.00990234 109.05004883 337.66699219 C110.25 339.6875 110.25 339.6875 110.03588867 342.2253418 C108.96078032 345.59361384 107.42446753 348.6500638 105.75 351.75 C105.39397705 352.4097583 105.0379541 353.0695166 104.67114258 353.74926758 C90.81602049 378.78147879 68.65457436 397.31628494 41.25 405.6875 C29.85564939 408.76881309 18.63464858 409.89520153 6.87402344 409.92773438 C4.782784 409.93734927 2.69256843 409.96839292 0.6015625 410 C-21.50338109 410.17417667 -42.89534524 403.81957756 -59 388.125 C-70.41909163 376.51830347 -76.66209224 362.88398836 -78.75 346.6875 C-79.18828125 347.40292969 -79.6265625 348.11835937 -80.078125 348.85546875 C-99.47250189 379.32671537 -131.84259247 398.52969894 -166.578125 406.6796875 C-179.1756727 409.29017231 -191.55700129 410.09607628 -204.375 410.0625 C-205.16136841 410.06195618 -205.94773682 410.06141235 -206.75793457 410.06085205 C-239.5598851 409.95688522 -268.01356529 400.24918947 -291.53125 376.9296875 C-313.99350863 353.18193817 -318.71366565 324.91428679 -317.92480469 293.30126953 C-316.63172181 266.56912883 -301.74313249 243.64520989 -282.7265625 225.81640625 C-236.05099776 183.60133037 -162.32191515 172.40143503 -101.93359375 172.640625 C-100.25874913 172.64439715 -98.58390368 172.64781738 -96.90905762 172.65087891 C-92.85601742 172.65903898 -88.80301821 172.67192614 -84.75 172.6875 C-84.81165113 163.05447132 -84.88906516 153.42172765 -84.98571491 143.78898621 C-85.03013398 139.31442115 -85.0694497 134.83994122 -85.09643555 130.36523438 C-85.12275648 126.03376512 -85.16335316 121.70262864 -85.21318626 117.37136841 C-85.22966304 115.73231193 -85.24129509 114.09319816 -85.24761391 112.45407104 C-85.34112862 90.39235146 -89.27718564 68.42683357 -104.70703125 51.56640625 C-119.03764521 38.38662553 -137.27790325 35.11239733 -156.125 35.3125 C-157.13932098 35.31798355 -157.13932098 35.31798355 -158.1741333 35.32357788 C-170.15985493 35.39950857 -181.05016675 36.42060313 -192.45556641 40.24682617 C-193.26120026 40.51669846 -194.06683411 40.78657074 -194.8968811 41.06462097 C-195.50841034 41.27017105 -196.11993958 41.47572113 -196.75 41.6875 C-196.74000725 42.76625648 -196.74000725 42.76625648 -196.72981262 43.86680603 C-196.66945159 50.67752592 -196.62389936 57.4882053 -196.59456348 64.29912472 C-196.57897401 67.79987531 -196.55786059 71.30040302 -196.52368164 74.80102539 C-196.48454795 78.83481871 -196.47023538 82.86838156 -196.45703125 86.90234375 C-196.44154739 88.14644516 -196.42606354 89.39054657 -196.41011047 90.67234802 C-196.40832571 99.97095076 -197.29413293 108.12393486 -203.90625 115.125 C-218.47350086 127.47012785 -242.56718441 126.82385135 -260.6015625 125.37890625 C-271.61231843 123.99951 -281.67709638 121.21064148 -290.75 114.6875 C-291.61625 114.130625 -292.4825 113.57375 -293.375 113 C-302.11609643 104.48893243 -305.01266061 93.56015822 -305.1875 81.75 C-305.09070092 67.02595252 -298.91912714 56.26754489 -288.60742188 45.98657227 C-263.25924887 22.09219153 -225.63083351 7.9247721 -193.75 -4.3125 C-192.61981445 -4.74691406 -191.48962891 -5.18132812 -190.32519531 -5.62890625 C-132.15504265 -27.74181535 -53.29655065 -42.39498347 0 0 Z M-180.6015625 237.2734375 C-192.69741032 250.86477196 -197.54981492 268.48337951 -196.5390625 286.43359375 C-194.88851287 301.64667856 -188.73882908 315.79195853 -176.75 325.6875 C-168.49031844 331.57110879 -158.95273645 335.9454828 -148.75 336.6875 C-147.76966797 336.76484375 -147.76966797 336.76484375 -146.76953125 336.84375 C-126.60486865 337.67671369 -106.32988991 331.39937597 -91.25 317.9375 C-86.16873256 313.74719797 -86.16873256 313.74719797 -84.50949097 307.76449585 C-84.50366241 306.02838534 -84.50907632 304.29221721 -84.52294922 302.55615234 C-84.52265717 301.60976395 -84.52236511 300.66337555 -84.52206421 299.68830872 C-84.5234612 296.54992609 -84.53903976 293.41177882 -84.5546875 290.2734375 C-84.55841632 288.1015333 -84.56126391 285.92962743 -84.56326294 283.75772095 C-84.57090973 278.03331888 -84.59056719 272.30901784 -84.6126709 266.58465576 C-84.63310683 260.74655525 -84.64225983 254.90843845 -84.65234375 249.0703125 C-84.6738121 237.60933054 -84.70796063 226.14842366 -84.75 214.6875 C-89.371246 214.65777464 -93.99243429 214.63642065 -98.61375427 214.62226868 C-100.1803942 214.61635849 -101.74702776 214.60830248 -103.31364441 214.59791565 C-130.34712891 214.42338755 -160.18529922 217.53545539 -180.6015625 237.2734375 Z " fill="#C00706" transform="translate(2639.75,247.3125)"/>
<path d="M0 0 C0.79277344 0.40605469 1.58554688 0.81210937 2.40234375 1.23046875 C3.21058594 1.65972656 4.01882812 2.08898437 4.8515625 2.53125 C5.68300781 2.96050781 6.51445312 3.38976562 7.37109375 3.83203125 C9.4121341 4.88774177 11.44669598 5.95425591 13.4765625 7.03125 C13.42121338 7.71413086 13.36586426 8.39701172 13.30883789 9.10058594 C13.04913882 12.32723201 12.79411259 15.55423324 12.5390625 18.78125 C12.40854492 20.39 12.40854492 20.39 12.27539062 22.03125 C10.89420833 39.62853558 10.32735582 57.16879325 10.33612061 74.81759644 C10.3335295 76.94090297 10.33051431 79.06420902 10.3271172 81.18751442 C10.31913271 86.96430865 10.31726249 92.74109041 10.31651974 98.5178895 C10.31465435 104.77008293 10.30710023 111.02227009 10.30038452 117.27445984 C10.28616336 131.62163035 10.28028531 145.96879676 10.27569258 160.31597281 C10.27334869 167.41503441 10.26974542 174.5140952 10.2659972 181.61315617 C10.25317652 205.94516649 10.24245139 230.27717637 10.2389946 254.60918999 C10.23877297 256.13258422 10.23855119 257.65597845 10.23832925 259.17937268 C10.23810861 260.70625135 10.23788813 262.23313002 10.2376678 263.76000869 C10.23722527 266.82275319 10.23677815 269.88549769 10.23632812 272.94824219 C10.23621873 273.70760814 10.23610934 274.46697409 10.23599664 275.24935112 C10.23236198 299.899275 10.21641891 324.54916954 10.19313776 349.19908217 C10.16852776 375.30389365 10.15482144 401.40868836 10.15362668 427.51351178 C10.15345524 430.3797977 10.15323982 433.24608362 10.15299225 436.11236954 C10.15293648 436.8180518 10.15288071 437.52373407 10.15282325 438.25080065 C10.15167454 449.58719491 10.14066905 460.92355889 10.12610519 472.25994294 C10.11172204 483.65250751 10.10876575 495.04502248 10.11654517 506.43759756 C10.12044962 512.60442044 10.11953151 518.77114169 10.10548782 524.93795204 C10.09273872 530.58790395 10.09395538 536.23767795 10.10607854 541.88762964 C10.10803362 543.92630009 10.10496588 545.96498318 10.09623417 548.00363587 C9.57016282 570.10991677 9.57016282 570.10991677 19.4765625 589.03125 C31.75081869 599.08326353 48.64576323 603.20261768 63.4765625 608.03125 C63.4765625 620.24125 63.4765625 632.45125 63.4765625 645.03125 C60.07472656 644.9590625 56.67289063 644.886875 53.16796875 644.8125 C17.81334139 644.11187966 -17.53720413 643.90625 -52.8984375 643.90625 C-54.02726097 643.90625 -55.15608444 643.90625 -56.31911469 643.90625 C-94.72870828 643.91173722 -133.12194287 644.24954019 -171.5234375 645.03125 C-171.5234375 633.15125 -171.5234375 621.27125 -171.5234375 609.03125 C-160.73753238 604.71688795 -160.73753238 604.71688795 -155.30957031 602.90185547 C-137.63098996 597.3293577 -137.63098996 597.3293577 -124.01171875 585.76953125 C-123.42970703 584.56876953 -123.42970703 584.56876953 -122.8359375 583.34375 C-122.44019531 582.55613281 -122.04445313 581.76851562 -121.63671875 580.95703125 C-119.11758559 574.33657253 -118.22548457 567.798991 -118.27175522 560.75214481 C-118.2673949 559.57355146 -118.2673949 559.57355146 -118.26294649 558.37114814 C-118.25567869 555.75232184 -118.26257473 553.13373222 -118.26947021 550.51490784 C-118.26716451 548.61273308 -118.26398725 546.71055922 -118.26001573 544.80838722 C-118.25167415 539.59187768 -118.25579015 534.3754414 -118.26198816 529.15893161 C-118.26651426 523.52898405 -118.25952808 517.89904907 -118.25402832 512.269104 C-118.24513421 501.24389959 -118.24705647 490.2187224 -118.2528536 479.19351692 C-118.25737023 470.23262063 -118.25798299 461.27173198 -118.25580597 452.31083488 C-118.2554995 451.03549999 -118.25519304 449.7601651 -118.25487728 448.44618369 C-118.25423783 445.85535781 -118.25358941 443.26453193 -118.2529321 440.67370605 C-118.24739129 417.07066014 -118.25313771 393.46763248 -118.2636173 369.86458964 C-118.27310715 348.3269548 -118.27225999 326.78934362 -118.26269531 305.25170898 C-118.25198102 281.04456616 -118.24777915 256.83744014 -118.25391984 232.63029426 C-118.25455694 230.0486898 -118.25518568 227.46708534 -118.25580597 224.88548088 C-118.25611452 223.61528806 -118.25642307 222.34509524 -118.25674097 221.03641172 C-118.25846751 212.08719913 -118.25555366 203.13799494 -118.25084686 194.18878365 C-118.24523624 183.28130215 -118.2467583 172.37384944 -118.25740835 161.46637125 C-118.26266274 155.90164652 -118.26472572 150.33696977 -118.25811005 144.77224541 C-118.25214369 139.67659977 -118.25543713 134.58104653 -118.26606515 129.48540925 C-118.26829626 127.64365613 -118.26716938 125.80189517 -118.26231357 123.96014709 C-118.08936976 105.05487554 -118.08936976 105.05487554 -125.5234375 88.03125 C-135.15596628 78.47441889 -150.48344296 75.15039518 -163.20336914 71.59130859 C-168.42934428 70.12534322 -168.42934428 70.12534322 -169.5234375 69.03125 C-169.61187543 66.58294574 -169.63872502 64.16304401 -169.62109375 61.71484375 C-169.6196788 60.98378922 -169.61826385 60.25273468 -169.61680603 59.49952698 C-169.61119158 57.15589368 -169.59863672 54.81235461 -169.5859375 52.46875 C-169.58092436 50.88346492 -169.57636113 49.29817834 -169.57226562 47.71289062 C-169.56121747 43.8189739 -169.54394322 39.92512795 -169.5234375 36.03125 C-168.98082275 35.9269165 -168.43820801 35.82258301 -167.87915039 35.71508789 C-160.0832139 34.20637731 -152.30056671 32.63375722 -144.5234375 31.03125 C-143.83938843 30.89029907 -143.15533936 30.74934814 -142.45056152 30.60412598 C-119.12102488 25.7784922 -95.96989774 20.26347622 -72.85957718 14.48981094 C-70.81435899 13.97897108 -68.76887331 13.46921346 -66.72335815 12.95956421 C-54.89392173 10.00902496 -43.06853183 7.0513024 -31.33007812 3.75439453 C-30.66338482 3.56762052 -29.99669151 3.3808465 -29.30979538 3.18841267 C-26.12668943 2.2949074 -22.94739694 1.39105142 -19.77154541 0.47190857 C-18.64391785 0.15190384 -17.51629028 -0.16810089 -16.35449219 -0.49780273 C-15.36987 -0.78243881 -14.3852478 -1.06707489 -13.37078857 -1.3603363 C-8.37455281 -2.42791743 -4.53942227 -2.36839423 0 0 Z " fill="#C00706" transform="translate(2936.5234375,1.96875)"/>
<path d="M0 0 C18.81 0 37.62 0 57 0 C57 33.33 57 66.66 57 101 C92.97 101 128.94 101 166 101 C166 120.14 166 139.28 166 159 C129.7 159 93.4 159 56 159 C56 164.61 56 170.22 56 176 C55.95852149 178.88248661 55.90625792 181.76489297 55.83227539 184.64672852 C55.81435755 185.3709903 55.7964397 186.09525208 55.7779789 186.84146118 C55.73957413 188.38588749 55.70026337 189.93029151 55.66007042 191.47467232 C55.57196214 194.86865973 55.48922006 198.26277394 55.40592289 201.65688229 C55.33845872 204.40171943 55.27028168 207.14653833 55.2020874 209.89135742 C54.12344297 253.52351033 53.37684947 297.15468425 53.01810455 340.79869843 C53.0061252 342.2552479 52.99397672 343.711796 52.98165131 345.16834259 C52.90933808 353.71658281 52.85218007 362.26470652 52.82476807 370.81323242 C52.81678161 373.0912403 52.80582719 375.36924034 52.79144287 377.6472168 C51.98710236 411.95010129 51.98710236 411.95010129 66.66015625 441.80859375 C77.40864383 451.62668832 91.41590258 453.43307156 105.49462891 452.90673828 C124.26474155 451.81126089 142.00942816 447.86564431 158.16015625 437.8203125 C160 437 160 437 163 438 C164.28686523 440.02197266 164.28686523 440.02197266 165.55859375 442.6640625 C166.02716797 443.62183594 166.49574219 444.57960938 166.97851562 445.56640625 C167.45998047 446.57574219 167.94144531 447.58507812 168.4375 448.625 C169.39268699 450.59724843 170.34968143 452.56862264 171.30859375 454.5390625 C171.76089355 455.48040039 172.21319336 456.42173828 172.67919922 457.39160156 C173.83716031 459.67841418 175.09862585 461.80100553 176.47265625 463.9609375 C178 467 178 467 177.6015625 469.09375 C175.36142631 471.76005844 172.9480821 474.16219079 170.375 476.5 C169.80088379 477.02263428 169.22676758 477.54526855 168.63525391 478.08374023 C143.74000336 500.36142157 113.971748 515.17766083 81.375 522.25 C80.6847876 522.40114258 79.9945752 522.55228516 79.28344727 522.70800781 C65.6294803 525.47471215 51.94322351 526.35265157 38.04370117 526.31567383 C35.56709986 526.31250588 33.09169034 526.33613056 30.61523438 526.36132812 C16.36343221 526.41870551 2.12626347 525.05276086 -11.375 520.1875 C-12.1177417 519.92743164 -12.8604834 519.66736328 -13.62573242 519.39941406 C-37.24888751 510.91156248 -54.91964009 494.84540059 -65.66015625 472.14453125 C-73.65405917 453.38333051 -76.07110398 434.14579337 -76.046875 413.85546875 C-76.04618515 412.97974213 -76.0454953 412.1040155 -76.04478455 411.20175171 C-76.02270843 402.49988228 -75.83061602 393.80435245 -75.62988281 385.10513306 C-75.0199706 358.13060545 -74.77773371 331.15327941 -74.53080368 304.17351151 C-73.96830855 242.79926762 -73.96830855 242.79926762 -73.52963257 213.68029404 C-73.50065197 211.73134484 -73.473088 209.78237475 -73.44555664 207.83340454 C-73.39430338 204.24694551 -73.33857403 200.66058534 -73.28125 197.07421875 C-73.26771484 196.10547821 -73.25417969 195.13673767 -73.24023438 194.13864136 C-73.03856093 182.41358469 -72.46904957 170.7262393 -72 159 C-89.16 159 -106.32 159 -124 159 C-124 146.13 -124 133.26 -124 120 C-118.38309871 117.75323948 -112.8667569 115.5690594 -107.17871094 113.56713867 C-57.731562 96.02796874 -29.11790607 60.07303784 -6.61816406 14.39746094 C-4.34692197 9.62881203 -2.18566912 4.80847206 0 0 Z " fill="#C00706" transform="translate(2110,131)"/>
<path d="M0 0 C20.79 0 41.58 0 63 0 C67.29 9.24 71.58 18.48 76 28 C78.48724883 33.1631855 80.97369595 38.32273618 83.50094604 43.46575928 C88.94196649 54.54458571 94.28244912 65.65991317 99.4375 76.875 C105.28896344 89.60162915 111.39805675 102.19549929 117.55834961 114.77490234 C122.46783809 124.80613946 127.27335675 134.88129287 132 145 C134.74891368 141.65817318 136.53962391 138.02551302 138.3359375 134.12109375 C138.65142044 133.44564011 138.96690338 132.77018646 139.29194641 132.07426453 C139.97007503 130.62133285 140.64616233 129.16744701 141.32040405 127.71270752 C143.11456725 123.84194204 144.92341289 119.97804012 146.73046875 116.11328125 C147.09394913 115.33486877 147.4574295 114.5564563 147.83192444 113.75445557 C151.05981821 106.84983994 154.36236258 99.98335282 157.6875 93.125 C162.0048904 84.2061455 166.22398139 75.24744633 170.375 66.25 C175.60517086 54.91769771 180.98471254 43.66534041 186.44873047 32.44433594 C191.69797852 21.65885166 196.84201744 10.83176337 202 0 C222.46 0 242.92 0 264 0 C264 80.19 264 160.38 264 243 C247.5 243 231 243 214 243 C213.67 190.86 213.34 138.72 213 85 C202.54185948 107.52057479 202.54185948 107.52057479 192.12838745 130.06158447 C186.4293711 142.43080123 180.70958839 154.78971202 174.9375 167.125 C166.86616593 184.37444371 158.9394388 201.68942032 151 219 C138.79 219 126.58 219 114 219 C104.81557655 200.63115309 104.81557655 200.63115309 101.5546875 193.5234375 C101.18251602 192.71797485 100.81034454 191.91251221 100.42689514 191.0826416 C99.24071288 188.51444416 98.05786801 185.94472533 96.875 183.375 C95.60962049 180.63358593 94.34332057 177.89259826 93.07695007 175.15164185 C92.23448294 173.32809876 91.39228729 171.50443022 90.55036926 169.68063354 C87.03535208 162.06811185 83.49127828 154.46948367 79.9375 146.875 C74.77481866 135.83017777 69.64469355 124.77050742 64.53201294 113.70245361 C63.72720856 111.96024478 62.92210018 110.21817634 62.1166687 108.47625732 C60.98950311 106.038034 59.86368324 103.599194 58.73828125 101.16015625 C58.40452484 100.43853806 58.07076843 99.71691986 57.72689819 98.97343445 C57.41136993 98.28876602 57.09584167 97.6040976 56.77075195 96.89868164 C56.49987259 96.31188126 56.22899323 95.72508087 55.9499054 95.12049866 C54.59547988 92.09697915 53.30506473 89.04515103 52 86 C51.67 137.81 51.34 189.62 51 243 C34.17 243 17.34 243 0 243 C0 162.81 0 82.62 0 0 Z " fill="#378903" transform="translate(1704,781)"/>
<path d="M0 0 C6.48371115 33.92277674 -5.30105162 73.1641095 -24.1484375 101.1953125 C-41.33633147 124.9605233 -65.87399493 144.73719848 -94.25 153.25 C-102.38041708 156.18029906 -109.08407737 160.09388724 -113 168 C-115.80659283 177.04557285 -116.28973981 186.60851981 -117 196 C-117.10989258 197.25941406 -117.21978516 198.51882813 -117.33300781 199.81640625 C-119.0199931 219.22420154 -119.26243021 238.53777224 -119 258 C-118.01925498 253.13639628 -117.04631874 248.27273378 -116.140625 243.39453125 C-111.50331793 219.11532714 -100.92626629 196.53727512 -80.5 181.5625 C-64.92444337 171.07668654 -48.52192949 165.02900062 -30 162 C-28.85402344 161.81050781 -27.70804688 161.62101563 -26.52734375 161.42578125 C-19.89371849 160.62952192 -13.1706004 160.89598499 -6.5 160.9375 C-5.09114742 160.94252467 -3.68229311 160.94708587 -2.2734375 160.95117188 C1.15108638 160.9628997 4.57552047 160.97931309 8 161 C9.17505552 189.8541412 1.88121416 218.34079107 -18 240 C-18.84433594 240.92554688 -19.68867187 241.85109375 -20.55859375 242.8046875 C-39.83325614 263.0025195 -70.15005286 277.49965395 -98.23779297 279.12988281 C-99.8257838 279.13227376 -101.41377008 279.07480141 -103 279 C-99.54748919 250.90370514 -82.52808674 231.02588075 -63 212 C-69.99556497 216.37642238 -76.00842359 221.33204268 -82 227 C-82.8146875 227.73863281 -83.629375 228.47726562 -84.46875 229.23828125 C-96.28819737 240.3657673 -104.42043688 254.28791123 -111 269 C-111.35755371 269.72719238 -111.71510742 270.45438477 -112.08349609 271.20361328 C-115.39243533 278.44422909 -115.65717717 285.243498 -115.75 293.125 C-115.77964844 294.36765625 -115.80929687 295.6103125 -115.83984375 296.890625 C-115.90991731 299.92714611 -115.96292355 302.96292723 -116 306 C-122.27585014 303.6146207 -126.92953555 299.8015085 -130.19140625 293.8125 C-131.23173797 291.2356114 -132.12426516 288.63762993 -133 286 C-139.73955825 266.90628172 -148.98352764 251.82089599 -163 237 C-163.73089844 236.21625 -164.46179687 235.4325 -165.21484375 234.625 C-172.61047421 226.9304249 -180.66412558 221.51483426 -190.125 216.6875 C-190.78185791 216.34968506 -191.43871582 216.01187012 -192.11547852 215.66381836 C-196.66467564 213.4190478 -201.04420692 212.087184 -206 211 C-204.65808594 211.72703125 -204.65808594 211.72703125 -203.2890625 212.46875 C-195.59289201 216.7067717 -188.65489236 221.21409359 -182 227 C-181.16855469 227.69867188 -180.33710937 228.39734375 -179.48046875 229.1171875 C-167.02368893 239.8709667 -157.67124883 253.51236932 -149.375 267.625 C-149.01978271 268.21708252 -148.66456543 268.80916504 -148.29858398 269.41918945 C-147.3359375 271.1015625 -147.3359375 271.1015625 -146 274 C-146.33 274.99 -146.66 275.98 -147 277 C-178.95439398 273.5079779 -209.52929655 266.43085505 -233 243 C-234.15435547 241.86304688 -234.15435547 241.86304688 -235.33203125 240.703125 C-255.82559969 219.336747 -259.58870229 191.8106974 -259.16113281 163.47924805 C-259.01231716 161.18951632 -258.64066633 159.19707466 -258 157 C-236.64894107 157.24696283 -215.61966957 160.25621751 -196 169 C-194.81535156 169.52335938 -193.63070313 170.04671875 -192.41015625 170.5859375 C-168.69154453 181.75072048 -150.33762342 200.00907034 -138 223 C-137.29692172 206.80315958 -138.53353673 186.97227116 -149.1875 173.89453125 C-155.29223044 167.51350913 -162.7131249 162.81223392 -170.0546875 157.99609375 C-178.30091724 152.40746855 -185.71411645 145.76975012 -193 139 C-194.03447266 138.06414062 -194.03447266 138.06414062 -195.08984375 137.109375 C-211.38500698 121.74997362 -221.3702173 98.94110018 -222.07617188 76.58813477 C-222.09769545 74.05789123 -222.08776305 71.53019122 -222.0625 69 C-222.05798828 68.12988281 -222.05347656 67.25976562 -222.04882812 66.36328125 C-222.0371736 64.24215707 -222.01924357 62.1210689 -222 60 C-197.35365839 58.92841993 -174.22131516 63.90436857 -154.76171875 79.83203125 C-143.4085441 90.30340593 -136.37538682 105.69441334 -135 121 C-134.78883702 127.66633502 -134.88245683 134.33269025 -135 141 C-135.66 141 -136.32 141 -137 141 C-138.38792875 138.79456596 -139.67081363 136.58630812 -140.9375 134.3125 C-148.67814194 121.02300514 -158.24342028 110.6605895 -171 102 C-171.66 102 -172.32 102 -173 102 C-172.56574707 102.41685059 -172.13149414 102.83370117 -171.68408203 103.26318359 C-167.37792476 107.47128795 -163.5205381 111.83634996 -159.875 116.625 C-159.32295898 117.35009766 -158.77091797 118.07519531 -158.20214844 118.82226562 C-146.81793894 134.06563838 -135.95532665 151.22295304 -129 169 C-128.93006836 167.79915771 -128.86013672 166.59831543 -128.78808594 165.36108398 C-126.40982998 125.05297358 -126.40982998 125.05297358 -124.0625 106.5625 C-123.9171582 105.377771 -123.77181641 104.19304199 -123.62207031 102.97241211 C-119.60743889 73.3698101 -104.96360012 47.26161548 -81.13330078 29.10888672 C-59.01061246 13.01213078 -27.80626327 -1.04192087 0 0 Z M-80.6796875 74.578125 C-98.71663575 93.36421168 -111.49828822 119.13021093 -115 145 C-114.67 145.99 -114.34 146.98 -114 148 C-113.69408936 147.31188232 -113.38817871 146.62376465 -113.07299805 145.91479492 C-97.59279176 111.27383432 -78.29767523 80.53940648 -51 54 C-49.99787912 53.00212539 -48.99662735 52.00336132 -48 51 C-58.74495468 51 -73.40112194 67.57542344 -80.6796875 74.578125 Z " fill="#378903" transform="translate(1783,150)"/>
<path d="M0 0 C158.92260062 0 158.92260062 0 186.53125 27.5234375 C198.01455245 40.61912146 205.37014943 58.54789045 206 76 C206.0515625 77.28003906 206.103125 78.56007813 206.15625 79.87890625 C206.84458933 105.44701459 201.11835852 128.6710749 183.24609375 147.71875 C176.75384138 154.31262023 170.297179 158.83615833 162 163 C165.42291164 169.37015463 169.14699086 175.46330684 173.125 181.5 C174.28790967 183.2772461 175.45066786 185.05459132 176.61328125 186.83203125 C177.18771973 187.70811035 177.7621582 188.58418945 178.35400391 189.48681641 C180.6851857 193.04617348 183.00138092 196.61509251 185.3125 200.1875 C185.74079102 200.84935303 186.16908203 201.51120605 186.61035156 202.19311523 C190.8830955 208.8047783 195.12990542 215.43306205 199.375 222.0625 C200.05344971 223.12170654 200.73189941 224.18091309 201.4309082 225.2722168 C203.29072673 228.17929385 205.14675614 231.08872806 207 234 C207.52368164 234.82097168 208.04736328 235.64194336 208.58691406 236.48779297 C212 241.88085251 212 241.88085251 212 243 C203.87240969 243.18554629 195.74570694 243.32759398 187.61652088 243.41449738 C183.84148563 243.45621285 180.06790125 243.51276313 176.29370117 243.60351562 C172.6496074 243.69058899 169.00690652 243.73830155 165.36185265 243.75901794 C163.97300975 243.77377516 162.58424136 243.8025967 161.19599342 243.84584045 C150.34654152 244.17028788 150.34654152 244.17028788 147.12164307 241.36750793 C145.80001005 239.29289117 144.88310373 237.29179535 144 235 C143.43684082 234.02377686 142.87368164 233.04755371 142.29345703 232.04174805 C141.78669434 231.12433838 141.27993164 230.20692871 140.7578125 229.26171875 C140.17354492 228.20678223 139.58927734 227.1518457 138.98730469 226.06494141 C138.37274414 224.95038574 137.75818359 223.83583008 137.125 222.6875 C136.47321961 221.50947124 135.82119676 220.3315766 135.16894531 219.15380859 C133.8079328 216.69569387 132.44796951 214.23700342 131.08886719 211.77783203 C127.97720224 206.14863349 124.85728002 200.52402084 121.73529053 194.90054321 C120.76815525 193.15771667 119.80227839 191.414192 118.83642578 189.6706543 C118.24587402 188.6062915 117.65532227 187.54192871 117.046875 186.4453125 C116.52963867 185.51219238 116.01240234 184.57907227 115.47949219 183.61767578 C114.46195414 181.81733866 113.4025099 180.04025348 112.30957031 178.28466797 C111 176 111 176 111 174 C92.85 174 74.7 174 56 174 C56 196.77 56 219.54 56 243 C37.52 243 19.04 243 0 243 C0 162.81 0 82.62 0 0 Z M56 46 C56 72.73 56 99.46 56 127 C65.9825 127.061875 75.965 127.12375 86.25 127.1875 C90.94138184 127.22846802 90.94138184 127.22846802 95.72753906 127.27026367 C98.24023046 127.27903549 100.75292616 127.28667778 103.265625 127.29296875 C104.5429248 127.30831665 105.82022461 127.32366455 107.13623047 127.33947754 C120.48340718 127.34332621 132.06178598 125.04550829 142.2578125 115.99609375 C151.06718979 106.91040757 153.34963119 95.71228626 153.2109375 83.41015625 C152.6075498 73.65538835 149.18078321 64.28509429 142.25390625 57.21875 C125.26207189 43.37093489 102.04543363 45.73321486 81.5625 45.875 C73.126875 45.91625 64.69125 45.9575 56 46 Z " fill="#378903" transform="translate(1384,781)"/>
<path d="M0 0 C5.66902487 2.26760995 10.56293764 5.90592906 14 11 C24.92916181 62.59997707 4.289286 125.12420934 -23.29980469 168.02099609 C-33.40596362 183.53233937 -45.19474699 197.65633411 -58 211 C-58.85335938 211.89460937 -59.70671875 212.78921875 -60.5859375 213.7109375 C-65.86925559 219.12758854 -71.40565128 224.05258996 -77.36425781 228.71484375 C-78.52251424 229.62485298 -79.67495944 230.54228129 -80.82324219 231.46484375 C-109.67667926 254.64006311 -155.57674791 282 -194 282 C-194.33919096 278.33385091 -194.67028081 274.6670121 -195 271 C-195.09539062 269.97003906 -195.19078125 268.94007813 -195.2890625 267.87890625 C-195.79321351 262.22521274 -196.109151 256.67585202 -196 251 C-194.95585938 250.56171875 -193.91171875 250.1234375 -192.8359375 249.671875 C-180.11431179 244.22602372 -168.05708236 237.77722794 -156 231 C-157.16015625 230.82984375 -158.3203125 230.6596875 -159.515625 230.484375 C-178.27983913 227.62343634 -195.37077794 222.63933894 -207.38671875 206.8671875 C-214.148708 197.13374817 -218.56057014 186.86030226 -220 175 C-205.29596524 170.09865508 -185.51224911 174.51000006 -171.83203125 180.53515625 C-167.22634596 182.91740726 -163.13228001 185.887068 -159 189 C-158.01 189.66 -157.02 190.32 -156 191 C-157.05515722 194.1936092 -158.0620413 195.03859262 -160.9765625 196.8515625 C-162.18548013 197.45735309 -163.4021081 198.04793893 -164.625 198.625 C-165.25293457 198.93058838 -165.88086914 199.23617676 -166.52783203 199.55102539 C-170.97686216 201.66084517 -175.1678309 203.13020956 -180 204 C-178.40656017 205.59343983 -176.76821209 205.20870742 -174.5625 205.25 C-163.91121681 205.06844404 -155.81305294 201.24795792 -148 194 C-140.32354497 184.29521335 -137.8029913 172.97601369 -137.8125 160.875 C-137.8115332 159.61272583 -137.8115332 159.61272583 -137.81054688 158.32495117 C-137.86358257 152.05528853 -138.46538382 146.09735892 -140 140 C-146.46659296 141.60518265 -150.91532516 144.12361407 -155.95703125 148.4765625 C-158.02823455 150.02105445 -159.47688216 150.58042535 -162 151 C-165.7621488 133.09945329 -163.71209594 113.58991538 -154 98 C-148.65223281 91.10342592 -142.44119528 84.17568668 -134.5234375 80.296875 C-130.46240264 78.00979786 -128.99047914 74.8122469 -127.25 70.625 C-116.61979455 47.46387655 -95.30820686 30.93791215 -71.67871094 22.13525391 C-69.19188496 21.2628474 -66.69617515 20.43234751 -64.1875 19.625 C-63.41124268 19.37403564 -62.63498535 19.12307129 -61.83520508 18.86450195 C-56.55364995 17.25061531 -51.50267346 16.47087554 -46 16 C-45.81842985 21.77133684 -46.3592987 26.78210135 -47.75 32.375 C-47.92756836 33.11161865 -48.10513672 33.8482373 -48.28808594 34.60717773 C-49.70569164 40.2832062 -51.54341627 45.68175755 -54 51 C-47.78591393 45.07974987 -42.16031433 39.60333308 -38 32 C-36 33 -36 33 -35 35.66796875 C-34.67 36.82941406 -34.34 37.99085938 -34 39.1875 C-33.67 40.31542969 -33.34 41.44335938 -33 42.60546875 C-30.3507009 53.33506458 -29.63610893 64.17342486 -29.6875 75.1875 C-29.69487183 77.08097168 -29.69487183 77.08097168 -29.70239258 79.01269531 C-29.98490642 101.7239105 -35.49582051 121.75272423 -45.23144531 142.16333008 C-46.03569991 144.08531462 -46.54544972 145.96939481 -47 148 C-23.43981314 126.53405198 -9.47892199 93.10286485 -7.87548828 61.54980469 C-7.50283206 49.5183323 -8.21521478 37.952697 -10.24609375 26.08984375 C-10.36791016 25.36748535 -10.48972656 24.64512695 -10.61523438 23.90087891 C-10.97817172 21.86092182 -10.97817172 21.86092182 -11.93359375 19.45703125 C-12.05037834 15.13600154 -9.10865212 12.11807459 -6.625 8.75 C-6.10421875 8.0178125 -5.5834375 7.285625 -5.046875 6.53125 C-1.3262987 1.3262987 -1.3262987 1.3262987 0 0 Z " fill="#C00706" transform="translate(1989,388)"/>
<path d="M0 0 C1.01037827 0.00222061 2.02075653 0.00444122 3.06175232 0.00672913 C4.77341331 0.00684242 4.77341331 0.00684242 6.51965332 0.00695801 C7.76129745 0.01211929 9.00294159 0.01728058 10.2822113 0.02259827 C12.17785072 0.02472069 12.17785072 0.02472069 14.11178589 0.02688599 C17.47705394 0.0315487 20.84225495 0.04053972 24.20750427 0.05158997 C27.63930175 0.06180606 31.07110614 0.06638403 34.50291443 0.07142639 C41.2405633 0.08248071 47.9781803 0.09923742 54.71580505 0.12025452 C58.33250422 7.21740393 61.78587324 14.32992017 64.8681488 21.67494202 C65.24078354 22.55375534 65.61341827 23.43256866 65.99734497 24.3380127 C67.21948809 27.22229684 68.43632577 30.10878827 69.65330505 32.99525452 C70.52770648 35.06078737 71.40255442 37.12613125 72.27781677 39.19129944 C74.13311819 43.56950788 75.98674676 47.94841912 77.83934021 52.32777405 C82.16968747 62.55920311 86.52427286 72.78031509 90.87892151 83.00141907 C92.34824906 86.45022709 93.81707526 89.89924835 95.28587341 93.34828186 C101.43258428 107.77898055 107.60107851 122.20018523 113.78605652 136.61451721 C123.26313079 158.70380883 132.67618512 180.82036337 142.08543396 202.93861389 C144.1280054 207.73974033 146.17263676 212.53998465 148.21839905 217.3397522 C149.56106567 220.49070761 150.90229499 223.642273 152.24302673 226.79405212 C152.84455108 228.20733588 153.44667249 229.62036568 154.04942322 231.03312683 C154.85523376 232.92214262 155.65865073 234.81217894 156.4618988 236.70228577 C156.90203308 237.73587219 157.34216736 238.76945862 157.79563904 239.83436584 C158.71580505 242.12025452 158.71580505 242.12025452 158.71580505 243.12025452 C138.91580505 243.12025452 119.11580505 243.12025452 98.71580505 243.12025452 C91.85088751 228.01743593 85.87711058 212.52351834 79.71580505 197.12025452 C43.08580505 196.79025452 6.45580505 196.46025452 -31.28419495 196.12025452 C-32.27419495 199.09025452 -33.26419495 202.06025452 -34.28419495 205.12025452 C-35.44061682 208.1120191 -36.61352856 211.08805139 -37.82325745 214.05775452 C-38.1495816 214.86390198 -38.47590576 215.67004944 -38.81211853 216.50062561 C-39.4948095 218.18509693 -40.1788749 219.86901183 -40.86427307 221.55238342 C-41.91714538 224.13979251 -42.96421423 226.72949868 -44.01075745 229.31947327 C-44.67708191 230.96153925 -45.34373644 232.60347135 -46.01075745 234.24525452 C-46.32429169 235.02118958 -46.63782593 235.79712463 -46.96086121 236.59657288 C-49.16910355 242.00516312 -49.16910355 242.00516312 -50.28419495 243.12025452 C-52.06411418 243.21396076 -53.84776234 243.23769723 -55.63014221 243.23377991 C-56.77124954 243.23370438 -57.91235687 243.23362885 -59.08804321 243.23355103 C-60.32968735 243.22838974 -61.57133148 243.22322845 -62.8506012 243.21791077 C-64.74624062 243.21578835 -64.74624062 243.21578835 -66.68017578 243.21362305 C-70.04544384 243.20896034 -73.41064484 243.19996932 -76.77589417 243.18891907 C-80.20769164 243.17870298 -83.63949603 243.174125 -87.07130432 243.16908264 C-93.80895319 243.15802832 -100.54657019 243.14127162 -107.28419495 243.12025452 C-106.47889024 238.68573674 -104.99655475 234.81977262 -103.1709137 230.71791077 C-102.68947151 229.61966728 -102.68947151 229.61966728 -102.19830322 228.49923706 C-101.49766642 226.90260308 -100.79473562 225.30697426 -100.08979797 223.7122345 C-98.94590773 221.1244162 -97.80790714 218.53407792 -96.67140198 215.94300842 C-95.04355606 212.23229274 -93.4136989 208.52246966 -91.7827301 204.81312561 C-88.12810894 196.49405142 -84.50846459 188.15978571 -80.88859558 179.82554626 C-79.64363728 176.95943808 -78.39796829 174.09363972 -77.15211487 171.22792053 C-70.20320087 155.24283182 -63.26493433 139.25312454 -56.32765198 123.26298523 C-49.02693609 106.43525815 -41.71729097 89.61143743 -34.40119934 72.79039001 C-29.58089622 61.70730052 -24.76397872 50.62277593 -19.96040344 39.53242493 C-19.17940347 37.72940794 -18.39806349 35.92653824 -17.61671448 34.12367249 C-15.17605455 28.49156605 -12.73910248 22.85789733 -10.30763245 17.22181702 C-9.38318799 15.08378118 -8.4587106 12.94575957 -7.53419495 10.80775452 C-7.1150885 9.83330383 -6.69598206 8.85885315 -6.26417542 7.85487366 C-5.88406311 6.97694153 -5.50395081 6.0990094 -5.11231995 5.19447327 C-4.61586975 4.04338074 -4.61586975 4.04338074 -4.10939026 2.86903381 C-2.82577977 0.14876698 -2.82577977 0.14876698 0 0 Z M23.71580505 61.12025452 C15.20363995 81.54494272 6.72648262 101.98390746 -1.60014343 122.48506165 C-2.34441129 124.31674107 -3.08990392 126.14792333 -3.83665466 127.97859192 C-4.8840734 130.54776325 -5.92662805 133.1188543 -6.9677887 135.69056702 C-7.27539124 136.44307739 -7.58299377 137.19558777 -7.8999176 137.97090149 C-8.18584778 138.68034912 -8.47177795 139.38979675 -8.76637268 140.1207428 C-9.01265915 140.72765961 -9.25894562 141.33457642 -9.51269531 141.95988464 C-10.58558402 144.96421069 -11.40779299 148.05284767 -12.28419495 151.12025452 C12.13580505 151.12025452 36.55580505 151.12025452 61.71580505 151.12025452 C58.01731631 141.25761786 54.29844927 131.44339513 50.3447113 121.68666077 C49.61658485 119.88333534 49.61658485 119.88333534 48.87374878 118.0435791 C47.85737417 115.52657757 46.83974697 113.01008806 45.82102966 110.49403381 C44.53748898 107.32388949 43.25616864 104.15285405 41.97565651 100.98148537 C36.60260019 87.67502371 31.20884004 74.37770102 25.71580505 61.12025452 C25.05580505 61.12025452 24.39580505 61.12025452 23.71580505 61.12025452 Z " fill="#378903" transform="translate(1132.284194946289,780.8797454833984)"/>
<path d="M0 0 C1.12142395 0.00323273 1.12142395 0.00323273 2.26550293 0.00653076 C14.20422113 0.06162274 25.76661199 0.65202914 37.4375 3.3125 C38.30165527 3.50585938 39.16581055 3.69921875 40.05615234 3.8984375 C59.19648767 8.32410647 77.07735423 15.39168104 93.4375 26.3125 C89.3896039 36.41806089 84.78749219 46.23016026 80.125 56.0625 C79.37670361 57.64571543 78.62865503 59.229048 77.88085938 60.8125 C76.06925479 64.64718729 74.25432342 68.48028275 72.4375 72.3125 C69.24239775 71.77044619 66.67531822 71.10257721 63.86328125 69.4921875 C63.20537598 69.12512695 62.5474707 68.75806641 61.86962891 68.37988281 C61.17015137 67.98639648 60.47067383 67.59291016 59.75 67.1875 C36.80204877 54.72108643 5.56072535 43.04889328 -20.5625 50.5 C-26.05374609 52.63836804 -30.2785383 55.90507181 -33.0625 61.125 C-34.1217238 67.8775517 -33.28686447 73.75019928 -29.296875 79.41015625 C-17.70757366 92.12184488 3.58839444 95.71963497 19.40496826 100.39395142 C72.41913185 116.08158029 72.41913185 116.08158029 86.3125 139.46875 C95.52929568 156.82704853 97.52290548 176.68130822 91.75 195.5703125 C84.6513904 215.80980057 71.80809302 228.02429068 52.88623047 237.46044922 C18.2631377 253.8185128 -24.00383255 249.67059936 -59.17431641 237.40136719 C-77.67602353 230.69689157 -93.13096796 221.4402067 -108.5625 209.3125 C-106.88927384 203.51390588 -104.17184273 198.35022349 -101.4375 193 C-96.63777315 183.51488223 -92.02757303 173.95910476 -87.5625 164.3125 C-82.75236132 164.3125 -82.21788617 165.13369676 -78.75 168.25 C-63.53584618 181.10646376 -44.6071172 189.82964401 -25.5625 195.3125 C-24.49386719 195.6321875 -23.42523437 195.951875 -22.32421875 196.28125 C-14.80638478 198.2259831 -7.55322654 198.61525487 0.1875 198.6875 C1.14591797 198.70143799 2.10433594 198.71537598 3.09179688 198.72973633 C12.71082494 198.66584182 21.8689297 196.53515826 29.4375 190.3125 C33.90008528 184.70566208 35.02037413 180.42356441 34.4375 173.3125 C32.79406251 167.03856633 29.79445161 162.73487735 24.48046875 159.04296875 C10.66243797 151.18496152 -4.90116907 147.38783843 -20.08792114 143.09936523 C-41.65724358 136.99682267 -62.31241356 130.53346442 -78.5625 114.3125 C-79.13742188 113.74917969 -79.71234375 113.18585938 -80.3046875 112.60546875 C-92.20462048 99.93481472 -94.34593974 83.33089558 -93.90625 66.734375 C-93.05726841 49.3302524 -85.35030276 34.0629705 -72.5625 22.3125 C-62.16130379 13.94660775 -50.79967678 8.42207676 -38.0625 4.5625 C-37.41120117 4.36366211 -36.75990234 4.16482422 -36.08886719 3.95996094 C-24.21396537 0.57128362 -12.26709865 -0.06379519 0 0 Z " fill="#378903" transform="translate(2178.5625,778.6875)"/>
<path d="M0 0 C57.75 0 115.5 0 175 0 C175 15.18 175 30.36 175 46 C135.73 46 96.46 46 56 46 C56 65.47 56 84.94 56 105 C91.97 105 127.94 105 165 105 C165 120.51 165 136.02 165 152 C129.03 152 93.06 152 56 152 C56 182.03 56 212.06 56 243 C37.52 243 19.04 243 0 243 C0 162.81 0 82.62 0 0 Z " fill="#378903" transform="translate(788,781)"/>
<path d="M0 0 C0.54769043 0.39896484 1.09538086 0.79792969 1.65966797 1.20898438 C18.56468996 13.64371183 33.97512281 27.497392 47 44 C47.84046875 45.01191406 48.6809375 46.02382813 49.546875 47.06640625 C68.02643278 69.49452975 81.59516625 96.24102167 90 124 C90.23267578 124.7640918 90.46535156 125.52818359 90.70507812 126.31542969 C96.37443895 145.35059133 100.2596297 165.77740038 100.0625 185.6875 C100.05347656 186.88761719 100.04445313 188.08773437 100.03515625 189.32421875 C100.01775391 190.64873047 100.01775391 190.64873047 100 192 C89.06028181 193.46560818 78.01045894 193.09470423 67 193 C65.87941349 190.75882698 65.71484964 189.14088467 65.45703125 186.65234375 C59.73762174 135.41101004 38.51887208 91.08243211 3 54 C2.29101562 53.24976563 1.58203125 52.49953125 0.8515625 51.7265625 C-35.8234199 13.85402966 -91.13916458 -8.21166161 -143.4296875 -9.1484375 C-154.993612 -9.25729594 -166.47897896 -9.00260389 -178 -8 C-178.67444768 -12.040408 -179.33817587 -16.08250666 -180 -20.125 C-180.19078125 -21.26710938 -180.3815625 -22.40921875 -180.578125 -23.5859375 C-180.84882812 -25.24882812 -180.84882812 -25.24882812 -181.125 -26.9453125 C-181.29257813 -27.96125488 -181.46015625 -28.97719727 -181.6328125 -30.02392578 C-182.00586777 -33.0475586 -182.0634842 -35.95672597 -182 -39 C-178.91772323 -39.48612169 -175.83401275 -39.96252669 -172.75 -40.4375 C-171.89664062 -40.57220703 -171.04328125 -40.70691406 -170.1640625 -40.84570312 C-111.54212956 -49.81398391 -48.00609303 -35.05251736 0 0 Z " fill="#F7AC00" transform="translate(1679,481)"/>
<path d="M0 0 C2.49939648 2.28006661 4.94906097 4.61014012 7.39404297 6.94824219 C8.32087891 7.82222656 9.24771484 8.69621094 10.20263672 9.59667969 C41.42228799 39.79781752 64.67541931 85.82403315 66.50341797 129.56542969 C66.51583733 131.36002791 66.46577126 133.15503498 66.39404297 134.94824219 C56.76383045 134.77599448 47.52985652 133.40776777 38.08154297 131.57324219 C36.96593994 131.36417236 35.85033691 131.15510254 34.70092773 130.93969727 C33.65477295 130.72853271 32.60861816 130.51736816 31.53076172 130.29980469 C30.58934326 130.11240723 29.6479248 129.92500977 28.67797852 129.73193359 C26.39404297 128.94824219 26.39404297 128.94824219 24.39404297 125.94824219 C23.87915039 123.84204102 23.87915039 123.84204102 23.49951172 121.40527344 C23.35151123 120.50446045 23.20351074 119.60364746 23.05102539 118.67553711 C22.89609619 117.71365479 22.74116699 116.75177246 22.58154297 115.76074219 C20.9247969 106.16285246 18.74179968 97.09063629 15.39404297 87.94824219 C15.15347168 87.28050781 14.91290039 86.61277344 14.66503906 85.92480469 C-0.03037655 45.85498977 -30.848174 13.35658927 -69.20751953 -4.95410156 C-93.94777315 -16.27659548 -119.70196597 -19.85602488 -146.60595703 -21.05175781 C-155.60595703 -41.8550365 -155.60595703 -41.8550365 -155.60595703 -48.05175781 C-111.0757257 -70.31687348 -32.28713265 -28.921531 0 0 Z " fill="#378903" transform="translate(1661.60595703125,538.0517578125)"/>
<path d="M0 0 C34.37784636 -2.12890333 69.5941191 13.49177412 95.09375 35.66015625 C120.81445716 58.50098552 136.46220571 87.38804583 143 121 C143 121.99 143 122.98 143 124 C115.66098004 119.96002337 86.72754916 99.27803642 66 82 C65.16057861 81.31284912 65.16057861 81.31284912 64.30419922 80.61181641 C50.60349206 69.38511903 37.81974526 57.04921295 27 43 C25.85917969 41.60201172 25.85917969 41.60201172 24.6953125 40.17578125 C16.85329776 30.3920536 10.41045499 19.75927878 4 9 C3.58073242 8.30100586 3.16146484 7.60201172 2.72949219 6.88183594 C0 2.24481453 0 2.24481453 0 0 Z " fill="#F7AC00" transform="translate(1524,536)"/>
<path d="M0 0 C3.86774215 3.68687651 7.10953934 7.55693726 10.25 11.875 C10.72526123 12.52774902 11.20052246 13.18049805 11.69018555 13.85302734 C22.48889328 28.90161889 34.02550711 45.79739831 32 65 C29.14054214 74.24412523 23.45165578 81.31701885 15.04296875 86.1171875 C6.4055081 90.06896688 -2.67396388 89.99460733 -11.58203125 87.0390625 C-19.35893979 83.69712765 -26.32996152 77.17063046 -29.875 69.4375 C-33.36445583 58.54871614 -31.03949689 47.90408717 -26 38 C-18.59659823 24.48791909 -9.67735444 11.96758681 0 0 Z " fill="#327CFE" transform="translate(1826,357)"/>
<path d="M0 0 C0 0.66 0 1.32 0 2 C-0.66193359 2.0093457 -1.32386719 2.01869141 -2.00585938 2.02832031 C-33.15455865 2.57497677 -66.45035324 5.85291233 -91 27 C-94.65726061 25.47544717 -96.84997926 23.29302019 -99.5625 20.4375 C-104.71927484 15.17455626 -110.21077937 10.54747475 -116 6 C-116.88945313 5.30132812 -117.77890625 4.60265625 -118.6953125 3.8828125 C-120.7908226 2.24713221 -122.89161555 0.61903102 -125 -1 C-124 -4 -124 -4 -121.2890625 -5.6484375 C-120.07542861 -6.24006493 -118.85327638 -6.81440447 -117.625 -7.375 C-116.96814209 -7.67809082 -116.31128418 -7.98118164 -115.63452148 -8.29345703 C-77.76602382 -24.98395664 -36.27278392 -16.33311642 0 0 Z " fill="#F7AC00" transform="translate(1817,473)"/>
<path d="M0 0 C-0.20681396 0.70084717 -0.41362793 1.40169434 -0.62670898 2.1237793 C-1.565874 5.31103264 -2.50171887 8.49925158 -3.4375 11.6875 C-3.92573242 13.34168945 -3.92573242 13.34168945 -4.42382812 15.02929688 C-4.73642578 16.09599609 -5.04902344 17.16269531 -5.37109375 18.26171875 C-5.65911865 19.24100342 -5.94714355 20.22028809 -6.24389648 21.22924805 C-7.06888408 23.96241478 -7.06888408 23.96241478 -7.2890625 26.71118164 C-8 29 -8 29 -10.15454102 30.34277344 C-11.09483154 30.67825195 -12.03512207 31.01373047 -13.00390625 31.359375 C-14.56975464 31.94319946 -14.56975464 31.94319946 -16.16723633 32.53881836 C-17.28767334 32.9385083 -18.40811035 33.33819824 -19.5625 33.75 C-30.70947955 37.94827493 -41.75631618 42.45926059 -51.29296875 49.75390625 C-53 51 -53 51 -55 51 C-56.3046875 49.15625 -56.3046875 49.15625 -57.875 46.5 C-61.54236446 40.52499307 -65.6834225 35.00564814 -69.99951172 29.484375 C-70.50240723 28.83082031 -71.00530273 28.17726563 -71.5234375 27.50390625 C-71.97638184 26.92455322 -72.42932617 26.3452002 -72.89599609 25.74829102 C-74.09750435 23.84559296 -74.57400105 22.19778103 -75 20 C-52.19998821 5.96374274 -26.81949303 -0.66107091 0 0 Z " fill="#378903" transform="translate(1812,492)"/>
<path d="M0 0 C4.03096608 5.21654434 5.82751607 9.07609738 5.125 15.75 C3.30442998 21.61628117 0.99614644 24.29960461 -3.875 27.75 C-9.27230471 29.54910157 -13.97548284 29.44468904 -19.125 27.125 C-22.93652934 24.98335483 -24.95306844 22.74761764 -26.875 18.75 C-28.34739042 13.3948615 -28.07392669 8.91269746 -25.875 3.75 C-22.79946555 -0.63641799 -19.31156135 -3.14624722 -14.0234375 -4.12890625 C-8.56694562 -4.43645397 -4.30597426 -3.3698929 0 0 Z " fill="#FF5B02" transform="translate(1992.875,339.25)"/>
<path d="M0 0 C3.60493168 3.81698648 4.97229276 6.89745016 5.5625 12.125 C5.32047382 17.38906944 3.53357674 22.02861834 -0.3828125 25.640625 C-4.9484265 28.65605378 -9.53621727 29.04056929 -14.875 28.25 C-19.74944095 26.56269352 -23.3844188 23.81441176 -25.875 19.25 C-27.4693056 13.96825139 -27.22342304 9.09889882 -25.0234375 4.04296875 C-22.49147017 0.08999935 -18.78100983 -1.9976277 -14.5 -3.6875 C-9.21083593 -3.81343248 -4.52414877 -2.75382968 0 0 Z " fill="#FF5B02" transform="translate(1970.875,288.75)"/>
<path d="M0 0 C4.07714407 2.71809604 7.04329194 5.28423176 8.44921875 10.01953125 C9.30127593 15.39756958 8.58081444 19.07658831 5.8125 23.875 C2.61353105 27.5538143 0.49626223 29.59322806 -4.45703125 30.11328125 C-11.38183696 30.31538771 -14.71125924 28.87175928 -20 24.3125 C-22.98677271 20.69693303 -22.51368312 16.04223181 -22.47265625 11.60546875 C-21.9720947 6.81242048 -19.63380755 4.14599754 -16.125 1.0625 C-11.01898681 -2.06699196 -5.47152637 -1.93112695 0 0 Z " fill="#FF5B02" transform="translate(1934.1875,236.125)"/>
<path d="M0 0 C3.76568651 3.00699783 5.86863051 5.77309912 6.48828125 10.54296875 C6.57194429 16.51650994 6.40105541 20.36382946 2.15234375 24.95703125 C-1.80879987 28.55807091 -6.06235547 28.45735604 -11.1875 28.3125 C-15.82858805 27.69232524 -18.35358811 25.3480602 -21.66015625 22.26953125 C-24.21528699 17.29375033 -24.29092093 12.52149483 -22.78515625 7.20703125 C-20.3415249 3.10803673 -17.63069688 -0.11339917 -12.9296875 -1.68359375 C-8.55260218 -2.43911317 -3.9186883 -2.21202913 0 0 Z " fill="#FF5B02" transform="translate(1938.84765625,350.04296875)"/>
<path d="M0 0 C3.30417555 1.7984753 5.47939286 4.10076949 7.375 7.375 C8.54298928 12.280555 8.66355829 16.23825251 6.3125 20.75 C3.91129768 24.12466272 2.85095328 25.57682162 -1 27 C-6.04726882 27.67635093 -9.82620111 27.57622855 -14.4375 25.3125 C-17.68428344 22.38247592 -19.69741484 20.30721183 -20.28125 15.85546875 C-20.47111585 11.0850893 -20.1442787 7.79481912 -17 4 C-11.45617353 -0.98944382 -7.11915936 -1.77371547 0 0 Z " fill="#FF5B02" transform="translate(1891,201)"/>
<path d="M0 0 C4.1276867 1.87622123 5.62018795 3.36289592 7.9375 7.25 C9.26747377 11.94402506 9.14633444 14.26181765 8 19 C5.76465424 22.54572086 3.83457069 24.40803022 0 26 C-4.28936017 26.74722522 -8.31319334 26.9617225 -12.171875 24.76171875 C-15.14081474 22.28964702 -16.76063075 20.71810774 -18 17 C-18.34530278 11.64780697 -18.48807959 8.33002984 -15 4 C-10.6946395 -0.82722238 -6.09157665 -0.94692778 0 0 Z " fill="#FF5B02" transform="translate(1919,306)"/>
<path d="M0 0 C3.41037542 2.17373028 4.73317038 4.58545443 5.87890625 8.4140625 C6.71138829 13.09348785 5.98689486 16.35654246 3.4375 20.3125 C-0.01785685 23.76785685 -1.68082712 24.41377638 -6.625 24.8125 C-10.62898455 24.69320065 -13.38375767 23.77025645 -16.75 21.5 C-20.15742294 17.75183477 -20.31715484 13.81554478 -20.171875 8.94140625 C-19.36252297 4.2576561 -16.65092921 1.89401475 -12.875 -0.875 C-8.30390921 -2.21943847 -4.28633483 -2.04801622 0 0 Z " fill="#FF5B02" transform="translate(1893.75,266.5)"/>
<path d="M0 0 C3.5081665 3.5081665 4.9258639 5.86942447 5.25 10.8125 C5.18050128 15.60791135 3.61774463 18.25781347 0.375 21.75 C-3.2973681 23.68282532 -6.8625672 24.24422346 -11 24 C-15.02492092 21.98753954 -17.60687681 19.78113465 -20 16 C-20.79775922 11.97131593 -20.8803669 7.84350333 -19.0859375 4.0859375 C-13.97260205 -2.61088248 -7.33328853 -2.99744683 0 0 Z " fill="#FF5B02" transform="translate(1859,236)"/>
<path d="M0 0 C2.70511973 2.15889363 4.14415291 3.60433374 5.25 6.921875 C5.64308695 11.71753577 5.73270142 13.99095084 3.5 18.296875 C0.07712823 22.2902254 -1.41136663 22.81563426 -6.6875 23.234375 C-11.4228313 23.10234903 -14.16210237 21.50977263 -17.5 18.171875 C-19.26375407 14.99711768 -19.62694316 12.55205167 -19.75 8.921875 C-18.31081274 4.37707313 -17.01762583 1.24967091 -12.75 -1.078125 C-8.59020446 -2.79941971 -3.83710513 -2.36393084 0 0 Z " fill="#FF5B02" transform="translate(1842.75,181.078125)"/>
<path d="M0 0 C3.76146751 2.68676251 5.92544834 5.48688302 7 10 C6.88920482 16.09373468 5.16097197 18.83902803 1 23 C-3.79402863 24.59800954 -8.15242551 24.73902979 -12.8125 22.875 C-16.60892985 19.62091727 -17.82416425 16.40668599 -18.4375 11.5 C-17.91481184 7.3184947 -16.64184935 5.24570063 -14 2 C-9.54528708 -0.96980861 -5.22189681 -0.74926191 0 0 Z " fill="#FF5B02" transform="translate(1891,360)"/>
<path d="M0 0 C3.07469523 1.70251719 5.40613254 3.81226508 7 7 C7.34717992 12.29449372 7.52421718 15.74663444 4 20 C0.06538376 23.16955197 -3.02077887 23.53348798 -8 23 C-11.62535141 21.352113 -14.20557709 19.58884581 -16 16 C-16.66921551 12.14649532 -16.89898103 8.60484761 -14.9453125 5.1171875 C-10.61199356 -0.19048718 -6.59033057 -1.01729935 0 0 Z " fill="#FF5B02" transform="translate(1814,218)"/>
<path d="M0 0 C2.73122759 2.52113316 3.79071719 4.35819939 4.9375 7.875 C5.03387583 12.6937914 3.45891559 16.26052372 0.375 19.9375 C-3.37811062 21.61652317 -6.96090312 21.5337378 -11 21 C-14.89984548 19.34049129 -16.40825166 17.85773069 -18 14 C-18.68671051 9.53638168 -18.57655028 6.04222551 -16.375 2.0625 C-11.1595233 -2.46672976 -6.1480599 -2.76597151 0 0 Z " fill="#FF5B02" transform="translate(1879,322)"/>
<path d="M0 0 C2.16015625 0.58203125 2.16015625 0.58203125 5.22265625 3.14453125 C7.46641334 7.12539061 7.89555678 9.08791691 7.16015625 13.58203125 C5.62178018 16.53058539 4.49939335 18.12909511 1.2890625 19.21484375 C-2.28631593 19.85016619 -4.34085615 19.79898238 -7.71484375 18.33203125 C-10.7422769 15.83885101 -11.76173638 14.17341565 -12.27734375 10.26953125 C-11.38635017 2.75972822 -7.30879674 -0.52467155 0 0 Z " fill="#FF5B02" transform="translate(1843.83984375,291.41796875)"/>
<path d="M0 0 C2.875 1.5 2.875 1.5 5 4 C6.13079347 7.6067138 6.39165419 10.75976174 5.25 14.375 C3.47873915 16.67763911 1.76057571 17.8795405 -1.12109375 18.3359375 C-7.29589491 18.44006568 -7.29589491 18.44006568 -10.5 16.4375 C-12.50133412 13.18533206 -12.93311096 10.81267501 -13 7 C-10.21552944 0.73494123 -6.68938489 -0.69200533 0 0 Z " fill="#FF5B02" transform="translate(1819,270)"/>
<path d="M0 0 C2.375 1.125 2.375 1.125 4 3 C5.16379881 6.56898301 5.30920437 8.28394777 3.8125 11.75 C1.88971429 14.1369064 0.93359496 15.16183001 -2 16 C-5.03536365 15.81416141 -7.22262247 15.44051393 -9.875 13.9375 C-11.72132966 10.75771003 -11.62303037 7.51870564 -11 4 C-8.14969659 -0.56048545 -5.12186168 -0.64023271 0 0 Z " fill="#FF5B02" transform="translate(1786,260)"/>
</svg>
